<?xml version="1.0" standalone="no"?>
<!DOCTYPE svg PUBLIC "-//W3C//DTD SVG 20010904//EN"
 "http://www.w3.org/TR/2001/REC-SVG-20010904/DTD/svg10.dtd">
<svg version="1.0" xmlns="http://www.w3.org/2000/svg"
 width="1600.000000pt" height="1600.000000pt" viewBox="0 0 1600.000000 1600.000000"
 preserveAspectRatio="xMidYMid meet">
<metadata>
Created by potrace 1.11, written by Peter Selinger 2001-2013
</metadata>
<g transform="translate(0.000000,1600.000000) scale(0.100000,-0.100000)"
fill="#000000" stroke="none">
<path d="M8650 15997 c-3 -3 -28 -7 -56 -10 -28 -2 -60 -9 -71 -15 -11 -6 -23
-9 -26 -5 -3 3 -14 2 -24 -2 -19 -8 -46 -14 -98 -20 -47 -6 -73 -16 -79 -31
-6 -16 -26 -19 -26 -3 0 5 5 7 12 3 7 -4 8 -3 4 5 -6 9 -11 9 -22 0 -7 -6 -11
-15 -8 -20 3 -5 0 -9 -5 -9 -6 0 -11 5 -11 11 0 5 -5 7 -10 4 -6 -4 -8 -11 -5
-16 4 -5 2 -9 -4 -9 -5 0 -12 6 -14 13 -3 7 -6 4 -6 -7 -1 -12 -6 -16 -16 -12
-8 3 -15 1 -15 -5 0 -6 -7 -8 -16 -5 -10 4 -13 2 -8 -6 5 -8 2 -9 -9 -5 -10 3
-17 2 -17 -2 0 -15 -33 -22 -42 -9 -6 10 -8 9 -8 -3 0 -19 -26 -33 -42 -22 -7
3 -8 1 -4 -5 7 -11 3 -14 -26 -16 -7 -1 -19 -7 -26 -14 -8 -7 -18 -9 -24 -6
-6 4 -8 3 -5 -3 6 -9 -57 -45 -76 -43 -4 0 -17 -9 -29 -19 -11 -11 -25 -18
-30 -15 -4 3 -8 0 -8 -6 0 -6 -4 -9 -9 -6 -5 3 -12 -1 -15 -10 -3 -8 -10 -12
-16 -9 -9 6 -15 -8 -11 -29 1 -5 -5 -4 -13 4 -12 9 -16 9 -16 1 0 -7 -4 -10
-9 -6 -6 3 -14 -3 -20 -12 -9 -16 -12 -16 -21 -3 -8 13 -10 13 -10 -1 0 -14
-81 -79 -98 -79 -5 0 -21 -13 -37 -30 -15 -16 -33 -27 -38 -23 -6 3 -7 1 -3
-5 4 -8 -8 -18 -34 -28 -23 -9 -38 -20 -33 -23 4 -3 9 -13 11 -21 2 -8 0 -12
-4 -7 -4 4 -14 1 -23 -7 -9 -8 -24 -16 -34 -17 -10 -2 -17 -8 -16 -13 2 -14
-84 -96 -94 -89 -6 3 -7 2 -4 -4 4 -6 -6 -21 -21 -34 l-27 -24 20 25 20 25
-22 -19 c-13 -10 -21 -22 -18 -26 4 -6 -56 -63 -122 -117 -10 -8 -12 -12 -5
-8 6 3 12 1 12 -4 0 -6 -6 -11 -13 -11 -7 0 -21 -13 -30 -30 -10 -16 -25 -30
-33 -30 -8 0 -13 -4 -10 -8 3 -5 -6 -20 -20 -35 -13 -14 -24 -30 -24 -34 0
-13 -38 -42 -45 -35 -3 4 -3 -1 0 -10 4 -11 -1 -20 -15 -28 -11 -6 -18 -15
-15 -20 3 -5 -6 -17 -20 -26 -14 -9 -25 -22 -25 -30 0 -7 -8 -19 -19 -26 -10
-7 -19 -17 -20 -23 0 -5 -5 -10 -10 -10 -5 0 -13 -4 -18 -9 -5 -5 -3 -6 5 -2
17 10 15 -5 -5 -29 -13 -16 -15 -17 -10 -2 9 25 4 21 -23 -15 -17 -24 -19 -29
-5 -18 17 14 18 14 7 -7 -7 -12 -22 -29 -34 -38 -13 -8 -23 -23 -23 -33 0 -9
-6 -16 -13 -14 -8 1 -11 -2 -8 -7 4 -5 -2 -14 -11 -20 -10 -6 -14 -11 -10 -11
4 0 -3 -11 -17 -24 -15 -13 -26 -26 -26 -30 0 -4 -12 -24 -27 -43 -16 -20 -28
-39 -28 -42 0 -3 -4 -5 -8 -3 -5 1 -6 -2 -3 -7 4 -5 -2 -14 -11 -20 -10 -6
-13 -11 -8 -11 6 0 11 -8 11 -19 0 -11 -5 -17 -13 -14 -7 3 -13 0 -13 -7 0 -6
-5 -8 -12 -4 -7 4 -5 -2 5 -13 14 -16 15 -23 6 -29 -8 -4 -10 -3 -5 4 4 7 1
12 -8 12 -14 0 -18 -6 -15 -27 0 -3 -6 -10 -15 -15 -9 -5 -14 -13 -12 -17 3
-4 -3 -17 -14 -29 -14 -14 -16 -22 -7 -25 7 -3 4 -6 -5 -6 -11 -1 -18 -9 -18
-21 0 -11 -7 -23 -16 -27 -13 -5 -13 -7 -2 -14 10 -7 9 -9 -5 -9 -10 0 -16 -4
-12 -10 3 -5 -3 -18 -15 -30 -11 -11 -16 -20 -10 -20 16 0 -21 -68 -44 -78
-12 -6 -15 -11 -8 -11 8 -1 4 -17 -13 -51 -16 -31 -30 -48 -37 -44 -6 4 -8 3
-4 -4 8 -13 -14 -63 -24 -57 -4 3 -7 -1 -7 -8 3 -20 -114 -241 -135 -255 -10
-7 -16 -18 -13 -23 4 -5 2 -9 -4 -9 -5 0 -8 -9 -6 -20 3 -13 0 -18 -7 -14 -8
5 -9 1 -4 -12 4 -10 4 -15 0 -12 -13 14 -52 -50 -46 -74 1 -5 -2 -8 -8 -8 -5
0 -6 -7 -3 -17 4 -9 2 -14 -3 -11 -5 4 -10 -7 -11 -23 -1 -16 -9 -36 -17 -44
-8 -8 -20 -31 -26 -50 -6 -19 -16 -35 -22 -35 -6 0 -3 -9 7 -20 18 -20 18 -21
-1 -14 -17 7 -18 6 -4 -11 8 -10 10 -16 4 -12 -13 8 -37 -16 -27 -26 3 -4 1
-7 -6 -7 -7 0 -9 -5 -6 -10 4 -6 2 -16 -3 -23 -5 -7 -15 -29 -21 -49 -7 -21
-17 -38 -22 -38 -6 0 -7 -4 -4 -10 3 -5 2 -10 -4 -10 -5 0 -8 -11 -5 -25 2
-14 0 -25 -6 -25 -6 0 -10 -6 -9 -12 3 -28 -2 -38 -18 -38 -14 0 -15 -2 -5 -9
12 -7 11 -14 -2 -40 -9 -17 -13 -31 -9 -32 5 0 -1 -5 -12 -10 -16 -7 -14 -8
10 -4 719 111 1897 286 1902 281 3 -3 -26 -76 -66 -163 -88 -187 -152 -337
-233 -538 -81 -202 -238 -618 -235 -622 2 -1 57 4 123 12 928 116 1491 160
2229 172 473 7 613 1 646 -30 13 -12 27 -21 32 -19 5 1 6 -2 3 -7 -3 -5 4 -22
16 -37 27 -37 44 -54 33 -35 -6 10 -4 12 4 7 7 -5 10 -10 7 -13 -10 -10 15
-44 27 -37 7 4 9 4 5 -1 -11 -12 11 -47 25 -39 7 4 9 4 5 -1 -11 -12 11 -47
25 -39 7 4 9 4 5 -1 -11 -12 11 -47 25 -39 7 4 9 4 5 -1 -11 -12 11 -47 25
-39 7 4 9 4 5 -1 -11 -12 11 -47 25 -39 7 4 9 4 5 -1 -11 -11 11 -47 24 -39 6
4 8 3 5 -2 -8 -13 9 -39 25 -39 7 -1 12 -6 10 -13 -2 -12 394 -552 405 -552 3
0 -1 8 -8 18 -11 15 -11 15 1 4 8 -7 15 -20 15 -30 0 -9 7 -17 15 -17 8 -1 14
-7 12 -14 -4 -18 18 -42 31 -34 6 3 7 1 3 -5 -7 -12 377 -535 387 -527 4 3 5
2 2 -1 -7 -10 54 -89 68 -89 7 0 12 -9 12 -20 0 -11 7 -20 15 -20 8 0 15 -9
15 -20 0 -11 7 -20 15 -20 8 0 15 -9 15 -20 0 -11 7 -20 15 -20 8 0 15 -9 15
-20 0 -11 7 -20 15 -20 8 -1 14 -7 12 -14 -4 -18 18 -42 31 -34 6 3 7 1 3 -6
-10 -15 13 -43 27 -34 6 3 7 1 3 -6 -10 -15 13 -43 27 -34 6 3 7 1 3 -5 -4 -7
9 -33 28 -58 66 -87 51 -94 -121 -60 -887 178 -1864 236 -2708 161 -93 -9
-260 -20 -370 -25 -110 -5 -245 -13 -300 -17 -92 -7 -96 -8 -50 -14 31 -5 9
-6 -55 -4 -77 2 -93 1 -60 -5 34 -6 22 -7 -50 -5 -70 3 -84 1 -55 -5 30 -6 19
-8 -45 -5 -62 3 -76 1 -50 -5 26 -7 17 -8 -40 -5 -58 3 -67 2 -40 -5 30 -8 27
-8 -20 -5 -30 3 -80 2 -110 -2 -50 -6 -52 -8 -25 -14 19 -5 5 -6 -35 -4 -48 3
-59 2 -40 -5 20 -8 16 -9 -18 -5 -76 9 -755 -110 -730 -127 9 -7 4 -8 -14 -4
-37 8 -94 -4 -76 -16 9 -7 4 -8 -15 -4 -33 8 -110 -11 -102 -24 4 -6 1 -10 -5
-10 -16 0 -24 -27 -74 -251 -338 -1523 -445 -2907 -320 -4164 8 -82 17 -162
20 -176 l5 -25 382 62 c210 34 382 61 383 60 7 -10 291 -399 330 -452 l53 -71
88 14 c48 8 590 94 1203 193 2171 348 2745 441 2765 449 15 6 41 66 104 237
46 126 198 537 338 914 140 377 297 800 348 940 51 140 170 460 263 710 331
888 472 1276 472 1299 0 17 4 22 16 17 9 -3 18 -6 20 -6 3 0 2 -4 -1 -10 -3
-6 1 -7 9 -4 9 3 16 1 16 -6 0 -6 4 -9 9 -6 13 8 42 -4 35 -15 -3 -5 2 -6 10
-3 11 4 16 0 16 -12 0 -16 2 -17 10 -4 8 12 10 12 10 -5 0 -17 2 -17 10 -5 8
12 10 12 10 -5 0 -17 2 -17 10 -5 7 11 10 11 10 2 0 -7 5 -10 10 -7 6 3 10 1
10 -5 0 -6 4 -8 10 -5 5 3 22 -1 37 -9 16 -9 21 -16 13 -16 -11 0 -11 -3 3
-11 11 -6 25 -12 31 -13 7 -1 25 -10 39 -19 15 -10 27 -15 27 -11 0 3 15 -5
33 -18 48 -37 96 -60 109 -52 6 4 8 3 4 -4 -3 -6 -2 -13 4 -17 5 -3 10 0 11 7
0 7 4 4 9 -7 6 -14 9 -15 10 -5 0 12 4 11 15 -4 7 -10 18 -15 24 -11 7 3 8 0
5 -10 -5 -11 -2 -14 10 -9 18 7 49 -13 41 -26 -3 -5 3 -6 13 -3 10 2 29 -6 43
-19 14 -13 31 -22 37 -20 7 2 12 -1 12 -7 0 -6 7 -11 15 -11 8 0 15 -4 15 -10
0 -5 6 -10 14 -10 7 0 21 -10 30 -22 9 -13 14 -16 11 -8 -4 8 3 4 14 -9 12
-13 21 -19 21 -15 1 5 10 -2 20 -15 11 -13 20 -19 20 -15 1 5 12 -4 26 -21 15
-16 23 -23 19 -15 -4 8 8 -1 25 -20 17 -19 29 -28 25 -20 -4 8 12 -5 35 -30
23 -25 39 -38 35 -30 -4 8 2 5 13 -7 11 -12 23 -19 27 -15 5 4 5 2 2 -4 -4 -6
2 -19 13 -29 11 -10 20 -23 20 -29 0 -7 21 -32 46 -56 26 -25 43 -38 39 -30
-4 8 13 -7 39 -35 26 -27 52 -60 57 -72 4 -13 16 -23 25 -23 10 0 14 -5 10
-16 -3 -8 -2 -12 4 -9 9 6 14 -8 11 -28 -1 -5 3 -6 9 -2 9 6 14 -7 11 -28 0
-4 4 -6 10 -5 6 2 14 -3 17 -11 3 -9 0 -11 -8 -6 -9 5 -11 4 -6 -4 4 -6 11 -9
16 -6 5 3 16 -8 24 -24 12 -23 13 -31 3 -34 -7 -3 -5 -6 5 -6 24 -1 45 -41 27
-52 -11 -7 -9 -9 6 -9 17 0 17 -2 5 -10 -13 -8 -13 -10 2 -10 12 0 15 -5 11
-17 -4 -11 -3 -14 5 -9 11 6 17 -12 13 -36 0 -5 3 -8 9 -8 9 0 26 -67 21 -84
-1 -5 4 -13 11 -18 11 -6 10 -10 -1 -17 -11 -7 -10 -10 4 -18 16 -9 16 -11 -2
-28 -15 -16 -15 -18 -1 -13 19 8 30 -21 16 -46 -5 -10 -5 -16 0 -16 15 0 6
-241 -9 -250 -6 -5 -9 -15 -6 -24 4 -11 1 -16 -11 -16 -13 0 -14 -2 -4 -9 8
-5 11 -17 7 -33 -5 -20 -11 -25 -28 -21 -20 5 -20 4 -5 -8 12 -10 14 -20 7
-36 -4 -13 -13 -23 -19 -23 -6 0 -9 -4 -6 -9 4 -5 0 -12 -6 -14 -10 -4 -10 -6
0 -6 11 -1 11 -4 0 -16 -23 -26 -33 -40 -36 -55 -2 -8 -7 -17 -11 -20 -4 -3
-10 -13 -14 -23 -4 -10 -11 -16 -16 -12 -5 3 -12 1 -16 -5 -3 -5 -1 -10 5 -10
6 0 8 -5 5 -10 -4 -6 -10 -8 -15 -5 -5 3 -12 0 -16 -6 -5 -8 -3 -9 6 -4 8 5
11 3 8 -6 -3 -8 -10 -14 -15 -14 -6 0 -15 -4 -20 -9 -5 -5 -3 -6 5 -2 6 4 12
3 12 -1 0 -5 -10 -13 -22 -18 -13 -6 -22 -17 -20 -26 1 -9 -5 -23 -15 -30 -14
-12 -16 -12 -8 0 6 10 4 12 -4 7 -7 -5 -10 -10 -7 -13 10 -10 -55 -83 -80 -89
-13 -3 -21 -10 -19 -15 3 -5 -33 -48 -81 -96 -47 -48 -83 -81 -79 -73 4 10 2
9 -8 -2 -8 -10 -17 -15 -20 -11 -4 3 -7 1 -7 -6 0 -7 -30 -43 -67 -79 -37 -37
-63 -60 -58 -52 6 9 0 4 -13 -10 -12 -14 -27 -24 -32 -22 -6 1 -9 -2 -8 -6 2
-5 -13 -22 -32 -38 -19 -16 -31 -24 -27 -18 3 6 0 11 -8 11 -8 0 -12 -4 -9 -9
4 -5 -4 -20 -17 -34 -17 -18 -25 -21 -31 -12 -6 10 -8 9 -8 -3 0 -9 -7 -22
-16 -30 -13 -10 -17 -10 -25 2 -7 11 -9 9 -9 -7 0 -12 -7 -27 -15 -34 -12 -10
-15 -10 -15 0 0 7 -9 2 -20 -11 -10 -13 -19 -21 -20 -18 0 3 -19 -11 -42 -33
-23 -21 -47 -38 -55 -38 -7 0 -16 -7 -19 -15 -4 -8 -12 -15 -19 -15 -7 0 -16
-7 -19 -16 -3 -9 -12 -14 -19 -11 -7 3 -23 -6 -36 -19 -13 -13 -28 -21 -34
-17 -6 3 -7 1 -3 -5 4 -7 -3 -14 -17 -18 -14 -3 -34 -17 -46 -30 -12 -14 -27
-22 -33 -18 -7 4 -8 3 -4 -4 4 -7 1 -12 -9 -12 -9 0 -13 -5 -10 -10 3 -6 -1
-10 -9 -10 -9 0 -16 -4 -16 -10 0 -5 -6 -10 -14 -10 -8 0 -17 -8 -20 -17 -6
-15 -8 -15 -16 -3 -8 13 -10 12 -10 -2 0 -9 -5 -20 -12 -24 -7 -5 -9 -2 -4 7
4 8 -1 3 -12 -10 -15 -18 -21 -21 -25 -10 -4 11 -6 10 -6 -2 -1 -9 -9 -23 -18
-30 -14 -12 -16 -12 -9 1 4 8 -2 4 -14 -10 -12 -14 -19 -20 -16 -13 4 6 1 15
-6 19 -7 4 -10 4 -6 -1 8 -9 -11 -50 -19 -41 -3 3 -12 -2 -19 -12 -11 -14 -14
-14 -14 -2 -1 8 -6 4 -12 -10 -10 -24 -10 -24 -18 -5 -7 18 -8 18 -11 -5 -2
-14 -8 -25 -14 -24 -5 1 -16 -6 -23 -15 -11 -13 -12 -13 -7 -1 4 8 -3 4 -15
-10 -12 -14 -19 -18 -15 -10 4 10 1 9 -8 -2 -8 -10 -19 -18 -26 -18 -6 0 -11
-4 -11 -10 0 -5 -7 -10 -15 -10 -8 0 -15 -4 -15 -10 0 -5 -7 -10 -15 -10 -8 0
-15 -5 -15 -12 0 -6 -3 -9 -6 -5 -4 3 -22 -5 -40 -20 -19 -14 -41 -23 -49 -19
-9 3 -13 2 -10 -3 6 -10 -11 -24 -35 -28 -8 -1 -20 -9 -26 -18 -9 -12 -13 -13
-17 -3 -3 8 -6 6 -6 -6 -1 -13 -6 -16 -18 -12 -10 4 -14 4 -10 0 8 -9 -11 -34
-27 -34 -6 0 -4 5 4 10 8 5 11 10 7 10 -16 0 -95 -51 -101 -65 -3 -8 -12 -12
-21 -9 -8 3 -15 1 -15 -6 0 -6 -6 -18 -14 -25 -10 -11 -16 -11 -26 -2 -10 10
-12 8 -7 -5 7 -20 -9 -35 -16 -16 -3 8 -6 6 -6 -4 -1 -16 -41 -47 -41 -31 0 4
-7 -2 -16 -13 -8 -10 -13 -13 -9 -6 3 6 2 12 -3 12 -5 0 -12 -8 -14 -17 -3
-10 -20 -27 -38 -37 -18 -10 -30 -14 -26 -7 4 6 2 11 -3 11 -6 0 -11 -6 -11
-14 0 -19 -67 -59 -74 -43 -2 7 -5 4 -5 -5 -1 -21 -41 -46 -42 -26 0 7 -4 4
-8 -7 -11 -27 -3 -38 15 -20 19 18 31 19 37 3 4 -8 6 -7 6 3 1 22 32 34 43 17
6 -10 8 -9 8 3 0 22 31 34 42 17 5 -10 8 -8 8 5 0 10 5 15 10 12 6 -3 10 -1
10 5 0 7 7 10 15 6 8 -3 15 -1 15 5 0 6 5 7 10 4 6 -3 17 1 26 9 9 9 20 14 25
10 5 -3 16 2 25 10 9 9 20 14 25 10 5 -3 17 2 26 12 16 15 17 15 24 -2 6 -14
8 -15 8 -4 1 15 95 59 108 52 3 -2 9 0 12 5 12 17 50 32 70 28 11 -2 20 1 18
7 -1 6 9 12 23 14 13 3 27 9 31 15 4 8 8 7 12 -2 3 -9 6 -7 6 6 1 17 3 17 11
5 7 -11 10 -11 10 -2 0 7 5 10 10 7 6 -3 10 1 10 9 0 9 6 13 14 10 7 -3 20 2
29 10 12 12 17 13 20 3 4 -8 8 -9 14 -1 4 6 29 19 56 29 26 10 47 22 47 27 0
5 4 7 9 4 5 -4 11 -3 13 2 6 16 109 72 120 66 7 -5 8 -2 3 6 -6 10 -4 12 9 7
11 -5 15 -3 10 5 -5 8 -2 9 10 5 11 -5 15 -3 10 5 -5 8 -2 9 10 5 10 -4 15 -3
11 3 -5 9 15 15 38 11 4 0 7 5 7 11 0 9 4 8 10 -2 8 -12 10 -12 10 5 0 17 2
17 10 5 8 -13 10 -12 10 3 0 10 5 15 10 12 6 -3 10 0 10 7 0 9 3 9 10 -2 8
-13 10 -13 10 1 0 20 27 33 34 16 2 -7 5 -4 5 5 1 20 37 42 53 32 7 -5 8 -3 3
6 -6 10 -4 12 9 7 11 -5 15 -3 10 5 -5 8 -2 9 10 5 9 -4 14 -3 11 2 -5 9 32
27 48 23 4 -1 7 3 7 9 0 5 5 7 10 4 6 -3 10 -1 10 5 0 6 5 8 10 5 6 -3 10 -1
10 6 0 7 3 10 6 6 4 -3 13 1 21 9 8 8 19 12 24 8 5 -3 12 2 15 10 3 9 10 13
15 10 5 -3 9 1 9 8 0 9 3 9 10 -2 8 -13 10 -12 10 3 0 10 8 17 19 17 11 0 23
5 26 10 4 6 10 8 15 5 4 -3 11 2 14 11 4 10 12 14 23 10 10 -4 14 -4 10 0 -3
4 13 16 36 27 23 12 45 26 49 31 5 7 8 7 8 -2 0 -10 3 -10 14 0 8 7 12 16 9
21 -2 4 8 7 22 7 15 0 24 4 20 10 -4 6 5 10 20 10 15 0 24 4 20 10 -3 5 0 7 8
4 8 -3 20 2 27 10 7 9 16 13 21 11 4 -3 16 6 25 20 9 14 25 25 35 25 11 0 19
7 19 15 0 13 24 20 52 16 4 0 5 5 2 13 -3 8 0 17 7 22 8 5 10 3 5 -7 -4 -8 2
-3 14 11 12 14 19 18 15 10 -4 -8 2 -6 12 5 10 12 27 27 37 35 18 13 19 13 12
0 -4 -8 2 -4 13 10 11 14 21 21 21 15 0 -5 5 -2 11 9 9 15 13 16 20 5 7 -11 9
-11 9 3 0 20 39 50 53 41 6 -3 7 -1 4 4 -6 10 5 18 31 24 4 1 13 9 20 18 11
12 12 13 7 1 -4 -8 5 -1 20 15 14 17 23 23 20 15 -4 -8 5 -1 20 15 14 17 24
25 21 18 -4 -6 -1 -15 6 -19 7 -4 10 -4 6 1 -9 10 9 45 24 45 6 0 17 8 25 18
10 11 12 12 8 2 -4 -8 3 -4 14 9 12 13 21 20 21 17 0 -4 10 2 22 14 12 11 25
21 30 21 4 1 12 2 17 3 5 0 13 5 18 10 5 6 2 6 -7 1 -8 -4 -6 1 5 12 11 11 27
19 35 19 8 -1 14 6 12 14 -2 8 0 12 4 8 12 -13 114 71 114 93 0 6 7 8 17 5 10
-4 15 -4 11 -1 -4 4 8 20 25 37 18 17 23 25 12 17 -16 -10 -15 -7 4 14 24 26
38 36 27 19 -3 -5 1 -9 9 -9 8 0 12 4 10 8 -7 10 164 189 178 186 6 -1 11 3
12 10 0 14 186 202 200 203 14 1 73 83 80 113 4 13 23 41 43 62 20 21 30 35
22 31 -8 -4 -6 0 5 9 11 9 19 20 18 25 -2 5 6 14 17 20 11 6 18 15 15 21 -4 5
-1 9 5 9 6 0 9 4 6 9 -3 5 1 12 10 15 8 3 13 10 10 15 -3 5 1 12 10 15 9 4 14
9 11 13 -4 3 1 12 11 20 9 8 11 12 5 8 -7 -3 -13 -1 -13 4 0 6 7 11 16 11 8 0
12 4 9 10 -3 6 -2 10 4 10 6 0 15 10 21 23 11 22 11 22 -6 2 -15 -18 -16 -18
-10 -2 3 10 6 21 6 23 0 2 7 4 16 4 8 0 13 4 10 9 -8 12 4 42 14 36 4 -3 7 1
7 8 -2 23 57 127 73 127 13 0 13 1 0 10 -12 8 -12 10 5 10 17 0 17 2 5 10 -12
8 -12 10 -1 10 8 0 12 3 8 6 -7 8 13 64 24 64 4 0 6 6 3 14 -3 7 1 20 9 27 7
8 12 20 9 27 -2 6 5 12 15 12 12 0 14 3 6 8 -10 6 -9 20 7 63 10 29 19 50 20
44 0 -5 6 -3 12 3 10 10 10 15 -2 22 -8 6 -10 10 -3 10 6 0 9 9 5 22 -4 16 -2
19 8 13 10 -6 12 -2 8 18 -3 17 0 28 10 32 8 3 12 12 8 20 -3 8 0 17 5 21 6 3
9 15 6 25 -3 10 -1 22 4 25 6 3 7 15 4 25 -4 11 -2 26 4 32 34 41 36 441 2
505 -5 10 -7 27 -5 40 2 12 -1 22 -7 22 -7 0 -8 11 -4 30 4 18 3 30 -4 30 -6
0 -8 7 -5 15 4 8 1 21 -5 29 -6 7 -8 16 -4 19 3 4 1 7 -6 7 -7 0 -9 4 -6 10 3
5 1 10 -5 10 -8 0 -10 9 -6 26 5 17 3 23 -4 19 -5 -3 -11 2 -12 12 0 10 -2 23
-2 30 -1 6 -4 15 -8 18 -4 4 -4 13 -1 21 3 8 -1 14 -8 14 -12 0 -12 2 -1 9 11
6 10 10 -3 15 -10 4 -15 12 -11 22 4 10 2 13 -6 8 -8 -5 -9 -2 -5 9 3 10 2 17
-4 17 -6 0 -7 5 -4 10 3 6 2 10 -2 10 -12 0 -34 61 -26 73 3 6 1 7 -4 4 -6 -4
-14 1 -17 10 -4 9 -1 20 6 25 10 6 8 8 -4 8 -20 0 -52 55 -42 72 4 6 3 8 -3 5
-13 -8 -26 20 -16 35 3 7 1 8 -5 4 -13 -8 -46 50 -37 64 3 6 -1 10 -9 10 -14
0 -21 18 -17 43 0 4 -4 6 -10 5 -6 -2 -14 3 -17 11 -3 9 0 11 9 6 8 -5 11 -4
6 1 -5 5 -14 9 -19 9 -6 0 -13 6 -16 14 -3 9 0 11 9 7 8 -4 1 5 -16 19 -16 15
-23 24 -15 20 10 -4 9 -1 -2 8 -10 8 -15 17 -11 20 3 4 -2 9 -11 13 -9 3 -16
12 -16 19 0 7 -7 18 -15 25 -8 7 -12 16 -9 21 3 5 -1 9 -9 9 -7 0 -24 12 -38
27 -13 14 -18 23 -11 19 25 -15 11 10 -17 29 -16 10 -27 23 -24 28 6 11 -37
58 -48 52 -4 -3 -11 0 -15 6 -5 8 -3 9 7 4 12 -8 12 -6 0 8 -14 18 -36 13 -24
-6 4 -7 0 -6 -10 2 -9 7 -14 17 -11 23 7 11 -71 88 -89 88 -16 0 -67 51 -67
67 0 6 -7 14 -16 17 -10 4 -13 2 -9 -7 4 -6 -10 6 -30 28 -20 22 -34 34 -30
26 5 -7 -6 -3 -24 10 -30 22 -43 38 -19 23 7 -4 8 -3 4 4 -4 6 -13 9 -21 5 -9
-3 -15 1 -15 11 0 9 -3 15 -7 15 -21 -3 -33 3 -33 17 0 8 -4 13 -9 9 -5 -3
-16 4 -24 15 -7 11 -16 17 -20 14 -8 -9 -27 32 -19 41 4 5 1 5 -6 1 -7 -4 -10
-13 -6 -19 3 -7 -2 -3 -10 7 -9 11 -16 23 -16 28 0 4 -7 8 -15 8 -8 0 -15 5
-15 10 0 6 -5 10 -11 10 -5 0 -7 -5 -3 -12 4 -7 3 -8 -4 -4 -7 4 -12 12 -12
17 0 16 -27 39 -44 39 -9 0 -16 5 -16 11 0 5 -4 7 -10 4 -5 -3 -10 -2 -10 3 0
11 -51 36 -68 33 -7 -1 -11 4 -10 11 3 12 -3 14 -43 17 -12 0 -23 10 -26 21
-5 19 -6 20 -19 3 -13 -17 -14 -17 -8 0 5 13 1 17 -15 17 -13 0 -25 9 -31 23
-5 12 -9 17 -9 10 -1 -18 -31 -4 -32 16 0 10 -2 12 -6 3 -4 -9 -12 -8 -36 7
-18 10 -43 21 -57 23 -14 1 -32 10 -40 18 -8 8 -24 17 -35 18 -11 2 -22 8 -23
13 -2 5 -8 7 -13 3 -5 -3 -9 0 -9 6 0 6 -4 8 -10 5 -5 -3 -10 -1 -10 5 0 6 -4
8 -10 5 -5 -3 -10 -1 -10 5 0 6 -4 8 -10 5 -5 -3 -10 2 -10 12 0 15 -2 16 -10
3 -8 -12 -10 -12 -11 5 0 11 -3 15 -5 9 -6 -14 -44 -6 -44 8 0 5 -4 6 -10 3
-5 -3 -10 2 -10 12 0 13 -3 15 -8 5 -9 -14 -42 -6 -42 10 0 5 -4 6 -10 3 -5
-3 -10 2 -10 12 0 13 -2 15 -9 5 -11 -18 -61 5 -61 27 0 12 -2 13 -8 4 -6 -10
-15 -10 -40 -1 -18 7 -32 16 -32 21 0 4 -4 6 -9 3 -15 -10 -41 5 -42 23 0 10
-2 11 -6 4 -2 -7 -9 -13 -14 -13 -6 0 -8 3 -6 8 3 4 -7 8 -21 9 -15 0 -28 6
-30 12 -2 6 -7 9 -12 6 -11 -7 -70 15 -70 26 0 4 -7 6 -15 3 -8 -4 -15 -1 -15
5 0 6 -8 8 -17 4 -16 -6 -17 -5 -3 12 14 17 14 18 -7 7 -26 -14 -36 -15 -29
-3 3 5 -1 12 -10 15 -10 4 -13 2 -9 -7 4 -6 0 -4 -8 5 -8 10 -23 19 -33 21
-10 2 -32 9 -48 16 -16 6 -31 9 -33 7 -3 -3 -21 4 -41 14 -21 11 -48 20 -62
22 -14 2 -31 7 -37 11 -8 5 -13 3 -13 -4 0 -8 -5 -8 -17 3 -10 8 -31 13 -46
12 -18 -2 -30 3 -34 12 -5 13 -7 13 -15 2 -7 -10 -11 -9 -23 6 -8 11 -15 14
-15 8 0 -7 -7 -12 -16 -12 -8 0 -13 4 -9 9 3 6 -6 8 -20 5 -19 -3 -23 -1 -18
12 5 14 3 15 -15 5 -19 -10 -22 -9 -22 6 0 10 -4 14 -8 8 -9 -13 -32 -17 -32
-6 0 5 -9 7 -19 4 -10 -3 -30 1 -42 8 -13 7 -28 14 -34 15 -5 0 -12 2 -15 3
-3 2 -25 5 -48 7 -24 3 -56 10 -70 16 -15 6 -39 10 -54 9 -19 -2 -27 2 -25 11
2 7 2 10 0 6 -7 -13 -43 -9 -43 5 0 9 -2 9 -9 -1 -6 -10 -10 -10 -21 3 -9 11
-16 12 -25 5 -10 -8 -17 -5 -29 12 -13 18 -16 19 -16 5 0 -21 -13 -22 -30 -2
-9 11 -16 12 -26 4 -9 -7 -19 -7 -32 0 -11 6 -22 8 -25 4 -3 -3 -14 -2 -24 2
-10 5 -24 7 -31 6 -8 -1 -21 6 -29 16 -8 10 -12 12 -8 6 4 -9 -2 -13 -19 -13
-14 0 -26 4 -26 10 0 5 -13 7 -30 4 -19 -4 -30 -2 -30 5 0 6 -11 8 -29 5 -16
-3 -32 -1 -35 5 -4 5 -13 8 -21 4 -8 -3 -23 -2 -32 2 -10 4 -31 7 -47 6 -17
-2 -26 1 -22 7 3 6 2 13 -4 17 -5 3 -10 1 -10 -4 0 -12 -43 -15 -54 -4 -4 4
-23 6 -43 4 -22 -2 -33 1 -29 7 3 6 2 13 -3 16 -5 4 -12 2 -16 -4 -3 -5 -17
-10 -31 -10 -14 0 -23 3 -21 8 3 4 -1 13 -9 20 -12 11 -14 10 -14 -3 0 -10
-10 -15 -30 -15 -16 0 -30 3 -30 8 0 4 -18 6 -40 4 -31 -3 -40 -1 -40 11 0 9
-5 19 -10 22 -6 4 -9 1 -8 -7 2 -8 -10 -14 -34 -16 -21 -2 -38 0 -38 5 0 4
-21 7 -47 5 -34 -2 -44 0 -34 7 10 6 -6 8 -49 4 -42 -4 -61 -3 -57 4 4 6 0 16
-8 23 -13 11 -14 10 -9 -4 5 -13 -1 -16 -31 -16 -37 0 -77 24 -53 32 8 3 -7
31 -38 74 -28 38 -186 251 -350 474 -165 223 -315 426 -334 453 -30 42 -37 47
-64 42 -49 -8 -787 -115 -796 -115 -5 0 -89 109 -187 242 -98 133 -183 248
-188 255 -8 11 -137 -5 -733 -91 -463 -68 -730 -102 -744 -97 l-22 8 24 6 c17
4 21 11 17 26 -3 12 -1 19 4 15 5 -3 9 2 9 11 0 9 5 13 10 10 10 -6 46 61 42
78 -1 4 4 7 10 7 9 0 8 4 -2 10 -11 7 -11 10 -2 10 7 0 10 5 7 10 -3 6 -1 10
5 10 6 0 9 4 6 9 -4 5 0 12 6 14 10 4 9 6 -1 6 -10 1 -9 6 5 19 10 9 20 24 22
32 2 8 10 19 18 23 8 5 12 12 9 16 -2 5 2 14 10 21 8 7 12 16 9 21 -3 5 0 9 6
9 6 0 9 4 6 9 -3 5 1 12 10 15 8 3 12 10 9 16 -3 5 -1 10 5 10 6 0 9 4 5 9 -3
5 1 16 9 23 7 8 17 24 20 36 4 12 12 22 17 22 6 0 7 5 4 11 -4 5 6 22 22 36
15 14 22 22 16 19 -7 -4 -13 -2 -13 3 0 6 6 11 14 11 8 0 18 5 22 12 4 7 3 8
-4 4 -7 -4 -12 -2 -12 3 0 6 6 11 14 11 8 0 13 8 12 18 0 9 4 16 10 15 7 -1
11 5 10 14 0 9 10 22 22 29 16 8 20 13 10 17 -8 3 -4 8 12 15 14 6 19 11 12
11 -7 1 -10 6 -7 11 4 6 10 8 15 5 5 -3 12 0 16 6 5 8 3 9 -6 4 -8 -5 -11 -3
-8 6 3 8 10 14 15 14 6 0 15 4 20 9 5 5 3 6 -4 2 -7 -4 -13 -2 -13 3 0 6 7 11
16 11 8 0 13 4 10 8 -7 11 11 37 26 37 7 0 13 9 13 20 0 11 6 19 13 17 6 -1
11 2 10 7 -2 5 6 17 17 26 11 9 13 14 5 10 -8 -4 -5 2 8 13 12 11 22 25 22 31
0 10 14 15 33 12 4 0 7 8 7 18 0 11 10 28 23 38 13 10 26 26 30 36 4 11 16 21
27 24 15 4 19 11 15 27 -5 15 -4 17 3 7 7 -9 12 -10 16 -2 4 6 4 11 -1 11 -4
0 17 24 46 54 29 30 50 59 47 65 -4 6 -1 9 7 6 17 -7 61 17 65 35 2 8 13 24
24 35 11 11 18 14 14 8 -5 -9 -2 -11 8 -7 9 3 16 12 16 19 0 7 8 19 17 26 14
12 16 12 9 -1 -4 -8 2 -3 13 11 21 27 79 70 67 50 -4 -6 -3 -11 2 -11 5 0 12
10 15 22 4 12 9 19 12 16 4 -4 16 3 27 14 16 16 22 18 29 7 7 -11 9 -10 9 3 0
25 99 75 111 56 7 -10 9 -9 9 5 0 10 5 15 10 12 6 -3 10 -2 10 3 0 15 43 23
52 9 5 -8 8 -6 8 6 0 14 5 17 20 12 12 -4 20 -2 20 5 0 6 6 10 13 9 6 -1 20 1
30 6 10 4 24 2 34 -6 9 -8 14 -9 10 -2 -9 15 27 22 115 22 37 0 70 -4 74 -10
3 -6 19 -7 34 -4 16 4 31 2 35 -5 3 -5 11 -8 16 -5 5 4 14 3 21 -1 7 -4 23 -9
37 -10 13 -2 27 -7 30 -11 3 -4 15 -10 26 -11 11 -2 22 -8 23 -13 2 -5 8 -7
13 -3 5 3 9 -3 9 -13 0 -15 2 -16 10 -3 7 11 10 11 10 2 0 -7 5 -10 10 -7 6 3
10 1 10 -6 0 -7 3 -9 6 -6 11 11 44 -13 44 -31 0 -12 3 -13 8 -5 6 9 17 6 45
-13 20 -13 37 -29 37 -35 0 -6 4 -8 9 -4 6 3 28 -12 51 -34 23 -22 48 -42 56
-45 8 -3 19 -17 24 -31 5 -14 14 -25 20 -25 6 0 9 -4 6 -8 -3 -5 16 -29 41
-53 25 -24 43 -37 39 -29 -4 8 8 -3 28 -25 59 -65 65 -73 59 -79 -4 -3 -1 -6
6 -6 15 0 46 -29 46 -44 1 -6 7 -10 14 -8 9 2 11 -3 7 -15 -4 -9 -4 -14 0 -11
10 11 36 -20 28 -34 -4 -7 -4 -10 1 -6 4 4 14 1 21 -7 17 -17 18 -29 2 -19 -8
4 -10 3 -5 -2 5 -5 14 -9 20 -9 5 0 12 -6 15 -14 3 -9 0 -11 -8 -6 -9 5 -11 4
-6 -4 4 -6 11 -9 16 -6 5 3 20 -11 34 -32 28 -40 33 -59 14 -47 -7 4 -8 3 -4
-5 4 -6 11 -9 16 -6 4 3 15 -6 24 -20 10 -14 12 -25 6 -25 -6 0 1 -11 15 -24
18 -17 22 -26 13 -29 -8 -4 -7 -6 5 -6 9 -1 17 -7 17 -15 0 -8 7 -17 16 -20 9
-3 14 -13 10 -21 -3 -8 -1 -17 5 -20 5 -4 7 -11 4 -16 -4 -5 1 -12 9 -15 9 -3
16 -11 16 -16 0 -5 9 -23 21 -39 11 -16 18 -29 15 -29 -5 0 27 -63 65 -127 15
-24 16 -32 7 -36 -9 -4 -7 -6 3 -6 18 -1 35 -31 18 -31 -5 0 1 -19 13 -42 12
-24 21 -46 20 -50 -1 -5 3 -8 9 -8 5 0 7 -5 3 -12 -5 -8 -2 -9 10 -5 9 4 15 3
11 -2 -3 -5 2 -16 10 -24 11 -11 12 -16 3 -19 -8 -3 -3 -14 15 -31 34 -35 48
-62 41 -80 -3 -8 -1 -18 5 -22 7 -4 9 1 6 12 -3 10 4 0 15 -22 11 -22 17 -47
14 -55 -3 -8 -2 -11 2 -7 10 10 36 -52 27 -67 -3 -6 -2 -7 2 -3 5 4 17 -12 26
-35 12 -31 14 -45 5 -50 -7 -5 -5 -8 5 -8 18 0 33 -26 23 -41 -3 -5 0 -9 6 -9
7 0 10 -7 6 -15 -3 -8 -1 -15 5 -15 6 0 7 -4 4 -10 -3 -5 -2 -10 3 -10 9 0 35
-68 32 -84 -1 -5 3 -12 10 -16 6 -4 12 -17 13 -28 1 -12 5 -22 10 -22 5 0 6
-7 3 -16 -4 -10 -2 -13 6 -8 8 5 9 2 5 -9 -3 -10 -2 -17 3 -17 5 0 7 -7 3 -16
-5 -14 -3 -14 15 -3 11 7 18 18 15 26 -3 7 -10 10 -15 7 -7 -5 -9 5 -6 25 2
17 1 31 -3 31 -4 0 -6 16 -5 35 1 19 -2 35 -5 35 -4 0 -6 16 -5 35 1 19 -2 36
-6 37 -5 2 -9 29 -11 60 -1 32 -6 58 -11 58 -4 0 -5 11 -2 24 3 14 2 28 -4 31
-5 3 -10 16 -9 28 0 12 -3 33 -6 47 -3 14 -7 36 -10 50 -3 14 -7 36 -10 50
-13 67 -17 87 -18 105 0 11 -5 23 -9 26 -5 3 -10 23 -13 45 -2 21 -5 41 -6 44
-1 3 -1 13 0 23 1 9 -2 17 -7 17 -9 0 -20 40 -27 97 -2 12 -6 27 -10 32 -3 6
-1 11 5 11 7 0 5 6 -4 15 -8 9 -13 22 -10 30 4 8 1 15 -6 15 -7 0 -10 8 -7 20
3 11 0 20 -5 20 -7 0 -6 5 1 14 8 10 8 15 1 18 -6 2 -11 18 -13 36 -1 21 -6
31 -15 27 -9 -3 -10 0 -2 15 7 13 7 21 -1 25 -6 4 -8 14 -5 22 3 8 2 12 -3 9
-8 -5 -19 31 -24 77 -1 9 -5 17 -10 17 -5 0 -7 7 -3 15 3 8 2 15 -2 15 -5 0
-9 10 -9 23 -4 59 -9 77 -21 77 -7 0 -11 4 -7 9 3 5 0 13 -6 16 -5 4 -8 13 -5
21 3 8 1 14 -5 14 -6 0 -8 4 -5 9 4 5 0 12 -6 14 -10 4 -10 7 0 15 11 7 10 10
-3 16 -15 5 -15 9 -4 23 10 12 10 14 2 9 -10 -5 -13 2 -13 27 0 20 -9 46 -22
63 -13 15 -16 24 -8 19 13 -8 13 -7 1 9 -11 13 -16 14 -23 4 -6 -8 -7 -5 -3
11 6 18 4 22 -6 16 -11 -6 -11 -5 -2 5 13 14 6 43 -8 34 -5 -3 -16 10 -23 28
-11 25 -11 35 -3 40 8 5 7 8 -4 8 -9 0 -21 11 -27 25 -15 33 -15 38 1 30 6 -4
4 0 -5 8 -28 23 -70 120 -55 129 8 5 7 8 -4 8 -20 0 -33 27 -16 34 7 2 6 5 -4
5 -21 1 -43 48 -26 55 7 2 4 5 -5 5 -10 1 -18 6 -18 11 0 6 0 12 0 15 0 3 -9
14 -21 26 -11 11 -18 27 -15 35 3 9 1 12 -4 9 -9 -5 -12 1 -9 21 0 3 -7 11
-17 18 -9 7 -14 18 -10 24 4 7 1 12 -9 12 -11 0 -15 5 -11 16 4 10 2 13 -6 8
-8 -5 -9 -2 -5 9 3 10 2 17 -4 17 -6 0 -7 5 -4 10 3 6 -1 10 -9 10 -9 0 -16 5
-16 11 0 5 4 7 10 4 5 -3 2 7 -7 24 -10 16 -21 27 -25 25 -7 -5 -10 4 -7 23 0
3 -6 10 -15 15 -9 5 -14 13 -11 18 3 4 -2 11 -11 14 -8 3 -13 10 -10 15 4 5
-11 23 -31 41 -23 19 -30 28 -18 25 18 -6 18 -5 4 7 -9 7 -14 19 -11 27 2 8 1
11 -4 8 -12 -6 -29 14 -29 33 0 17 -30 50 -45 50 -5 0 -10 5 -10 12 0 6 -15
25 -32 41 -18 16 -25 23 -15 16 15 -10 14 -6 -5 23 -19 29 -26 34 -42 26 -12
-7 -16 -7 -12 0 3 5 -1 15 -9 22 -8 7 -13 16 -10 20 3 4 -3 14 -13 21 -16 13
-16 13 -2 -6 14 -19 14 -19 -2 -6 -10 7 -18 19 -18 25 0 11 -38 50 -104 106
-16 14 -26 18 -22 10 4 -8 -7 1 -25 20 -18 19 -37 34 -41 33 -4 -2 -16 9 -27
24 -12 14 -21 22 -21 17 -1 -5 -9 1 -19 13 -10 12 -21 20 -24 17 -3 -3 -11 3
-18 14 -7 11 -19 18 -26 15 -8 -3 -13 3 -13 18 0 19 -2 21 -10 9 -7 -12 -11
-10 -19 10 -5 14 -10 19 -10 12 -1 -20 -41 5 -42 26 0 9 -3 12 -5 5 -3 -7 -12
-9 -20 -6 -12 4 -12 8 -2 22 11 14 11 14 -3 3 -18 -14 -52 -6 -42 11 3 6 1 7
-5 3 -6 -4 -24 0 -39 9 -16 9 -20 14 -10 11 11 -4 16 -2 11 5 -3 6 -15 9 -25
6 -11 -3 -19 -1 -19 5 0 5 -4 7 -9 4 -5 -3 -11 1 -15 9 -3 8 -10 15 -16 15 -6
0 -8 -6 -4 -12 6 -10 5 -10 -8 -1 -8 7 -18 10 -21 6 -4 -3 -7 -1 -7 5 0 7 -6
12 -13 12 -7 0 -18 5 -25 12 -6 6 -29 13 -49 14 -21 1 -54 7 -73 14 -35 12
-341 27 -350 17z m247 -23 c-3 -3 -12 -4 -19 -1 -8 3 -5 6 6 6 11 1 17 -2 13
-5z m1113 -1669 c11 -13 10 -14 -4 -9 -9 3 -16 10 -16 15 0 13 6 11 20 -6z
m-4060 -1089 c0 -3 -4 -8 -10 -11 -5 -3 -10 -1 -10 4 0 6 5 11 10 11 6 0 10
-2 10 -4z m1637 -182 c-3 -3 -12 -4 -19 -1 -8 3 -5 6 6 6 11 1 17 -2 13 -5z
m-64 -11 c-7 -2 -19 -2 -25 0 -7 3 -2 5 12 5 14 0 19 -2 13 -5z m-70 -10 c-7
-2 -19 -2 -25 0 -7 3 -2 5 12 5 14 0 19 -2 13 -5z m-60 -10 c-7 -2 -19 -2 -25
0 -7 3 -2 5 12 5 14 0 19 -2 13 -5z m-70 -10 c-7 -2 -19 -2 -25 0 -7 3 -2 5
12 5 14 0 19 -2 13 -5z m-60 -10 c-7 -2 -19 -2 -25 0 -7 3 -2 5 12 5 14 0 19
-2 13 -5z m-70 -10 c-7 -2 -19 -2 -25 0 -7 3 -2 5 12 5 14 0 19 -2 13 -5z
m-60 -10 c-7 -2 -21 -2 -30 0 -10 3 -4 5 12 5 17 0 24 -2 18 -5z m-70 -10 c-7
-2 -19 -2 -25 0 -7 3 -2 5 12 5 14 0 19 -2 13 -5z m-60 -10 c-7 -2 -21 -2 -30
0 -10 3 -4 5 12 5 17 0 24 -2 18 -5z m-70 -10 c-7 -2 -19 -2 -25 0 -7 3 -2 5
12 5 14 0 19 -2 13 -5z m-60 -10 c-7 -2 -21 -2 -30 0 -10 3 -4 5 12 5 17 0 24
-2 18 -5z m-70 -10 c-7 -2 -21 -2 -30 0 -10 3 -4 5 12 5 17 0 24 -2 18 -5z
m-70 -10 c-7 -2 -19 -2 -25 0 -7 3 -2 5 12 5 14 0 19 -2 13 -5z m-60 -10 c-7
-2 -21 -2 -30 0 -10 3 -4 5 12 5 17 0 24 -2 18 -5z m-70 -10 c-7 -2 -19 -2
-25 0 -7 3 -2 5 12 5 14 0 19 -2 13 -5z m-60 -10 c-7 -2 -21 -2 -30 0 -10 3
-4 5 12 5 17 0 24 -2 18 -5z m-70 -10 c-7 -2 -19 -2 -25 0 -7 3 -2 5 12 5 14
0 19 -2 13 -5z m-60 -10 c-7 -2 -21 -2 -30 0 -10 3 -4 5 12 5 17 0 24 -2 18
-5z m-70 -10 c-7 -2 -21 -2 -30 0 -10 3 -4 5 12 5 17 0 24 -2 18 -5z m-60 -10
c-7 -2 -21 -2 -30 0 -10 3 -4 5 12 5 17 0 24 -2 18 -5z m-70 -10 c-7 -2 -19
-2 -25 0 -7 3 -2 5 12 5 14 0 19 -2 13 -5z m-60 -10 c-7 -2 -21 -2 -30 0 -10
3 -4 5 12 5 17 0 24 -2 18 -5z m-70 -10 c-7 -2 -21 -2 -30 0 -10 3 -4 5 12 5
17 0 24 -2 18 -5z m-60 -10 c-7 -2 -21 -2 -30 0 -10 3 -4 5 12 5 17 0 24 -2
18 -5z m-70 -10 c-7 -2 -19 -2 -25 0 -7 3 -2 5 12 5 14 0 19 -2 13 -5z m-70
-10 c-7 -2 -19 -2 -25 0 -7 3 -2 5 12 5 14 0 19 -2 13 -5z m-60 -10 c-7 -2
-21 -2 -30 0 -10 3 -4 5 12 5 17 0 24 -2 18 -5z m4560 -920 c-35 -2 -91 -2
-125 0 -35 2 -7 3 62 3 69 0 97 -1 63 -3z m220 -10 c-24 -2 -62 -2 -85 0 -24
2 -5 4 42 4 47 0 66 -2 43 -4z m-195 -10 c-21 -2 -57 -2 -80 0 -24 2 -7 4 37
4 44 0 63 -2 43 -4z m360 0 c-15 -2 -42 -2 -60 0 -18 2 -6 4 27 4 33 0 48 -2
33 -4z m-155 -10 c-18 -2 -48 -2 -65 0 -18 2 -4 4 32 4 36 0 50 -2 33 -4z
m300 0 c-18 -2 -48 -2 -65 0 -18 2 -4 4 32 4 36 0 50 -2 33 -4z m-140 -10
c-13 -2 -33 -2 -45 0 -13 2 -3 4 22 4 25 0 35 -2 23 -4z m260 0 c-13 -2 -35
-2 -50 0 -16 2 -5 4 22 4 28 0 40 -2 28 -4z m-120 -10 c-13 -2 -33 -2 -45 0
-13 2 -3 4 22 4 25 0 35 -2 23 -4z m125 -10 c-10 -2 -26 -2 -35 0 -10 3 -2 5
17 5 19 0 27 -2 18 -5z m-1326 -1850 c-95 -2 -248 -2 -340 0 -92 1 -14 3 173
3 187 0 262 -2 167 -3z m-569 -10 c-29 -2 -78 -2 -110 0 -32 2 -8 3 52 3 61 0
87 -1 58 -3z m925 0 c-26 -2 -71 -2 -100 0 -29 2 -8 3 47 3 55 0 79 -1 53 -3z
m-1130 -10 c-21 -2 -57 -2 -80 0 -24 2 -7 4 37 4 44 0 63 -2 43 -4z m1310 0
c-21 -2 -55 -2 -75 0 -21 2 -4 4 37 4 41 0 58 -2 38 -4z m-1460 -10 c-16 -2
-40 -2 -55 0 -16 2 -3 4 27 4 30 0 43 -2 28 -4z m1595 0 c-18 -2 -48 -2 -65 0
-18 2 -4 4 32 4 36 0 50 -2 33 -4z m-1715 -10 c-15 -2 -42 -2 -60 0 -18 2 -6
4 27 4 33 0 48 -2 33 -4z m1830 0 c-16 -2 -40 -2 -55 0 -16 2 -3 4 27 4 30 0
43 -2 28 -4z m-2015 -10 c-29 -2 -77 -2 -105 0 -29 2 -6 3 52 3 58 0 81 -1 53
-3z m2120 0 c-13 -2 -35 -2 -50 0 -16 2 -5 4 22 4 28 0 40 -2 28 -4z m-2340
-10 c-18 -2 -48 -2 -65 0 -18 2 -4 4 32 4 36 0 50 -2 33 -4z m2430 0 c-13 -2
-33 -2 -45 0 -13 2 -3 4 22 4 25 0 35 -2 23 -4z m85 -10 c-10 -2 -28 -2 -40 0
-13 2 -5 4 17 4 22 1 32 -1 23 -4z m85 -10 c-13 -2 -33 -2 -45 0 -13 2 -3 4
22 4 25 0 35 -2 23 -4z m75 -10 c-10 -2 -26 -2 -35 0 -10 3 -2 5 17 5 19 0 27
-2 18 -5z m70 -10 c-10 -2 -26 -2 -35 0 -10 3 -2 5 17 5 19 0 27 -2 18 -5z
m70 -10 c-10 -2 -26 -2 -35 0 -10 3 -2 5 17 5 19 0 27 -2 18 -5z m-3445 -10
c-7 -2 -21 -2 -30 0 -10 3 -4 5 12 5 17 0 24 -2 18 -5z m3510 0 c-7 -2 -21 -2
-30 0 -10 3 -4 5 12 5 17 0 24 -2 18 -5z m60 -10 c-7 -2 -21 -2 -30 0 -10 3
-4 5 12 5 17 0 24 -2 18 -5z m60 -10 c-7 -2 -21 -2 -30 0 -10 3 -4 5 12 5 17
0 24 -2 18 -5z m-3850 -10 c-7 -2 -19 -2 -25 0 -7 3 -2 5 12 5 14 0 19 -2 13
-5z m3910 0 c-7 -2 -21 -2 -30 0 -10 3 -4 5 12 5 17 0 24 -2 18 -5z m-3970
-10 c-7 -2 -19 -2 -25 0 -7 3 -2 5 12 5 14 0 19 -2 13 -5z m4020 0 c-7 -2 -19
-2 -25 0 -7 3 -2 5 12 5 14 0 19 -2 13 -5z m-4080 -10 c-7 -2 -19 -2 -25 0 -7
3 -2 5 12 5 14 0 19 -2 13 -5z m4130 0 c-7 -2 -19 -2 -25 0 -7 3 -2 5 12 5 14
0 19 -2 13 -5z m-4190 -10 c-7 -2 -19 -2 -25 0 -7 3 -2 5 12 5 14 0 19 -2 13
-5z m4240 0 c-7 -2 -19 -2 -25 0 -7 3 -2 5 12 5 14 0 19 -2 13 -5z m-4296 -9
c-3 -3 -12 -4 -19 -1 -8 3 -5 6 6 6 11 1 17 -2 13 -5z m4350 0 c-3 -3 -12 -4
-19 -1 -8 3 -5 6 6 6 11 1 17 -2 13 -5z m-4650 -50 c-3 -3 -12 -4 -19 -1 -8 3
-5 6 6 6 11 1 17 -2 13 -5z m-50 -10 c-3 -3 -12 -4 -19 -1 -8 3 -5 6 6 6 11 1
17 -2 13 -5z m-50 -10 c-3 -3 -12 -4 -19 -1 -8 3 -5 6 6 6 11 1 17 -2 13 -5z
m5090 0 c-3 -3 -12 -4 -19 -1 -8 3 -5 6 6 6 11 1 17 -2 13 -5z m-5180 -20 c-3
-3 -12 -4 -19 -1 -8 3 -5 6 6 6 11 1 17 -2 13 -5z m5300 -10 c-3 -3 -12 -4
-19 -1 -8 3 -5 6 6 6 11 1 17 -2 13 -5z m-5390 -10 c-3 -3 -12 -4 -19 -1 -8 3
-5 6 6 6 11 1 17 -2 13 -5z m5430 0 c-3 -3 -12 -4 -19 -1 -8 3 -5 6 6 6 11 1
17 -2 13 -5z m-5470 -10 c-3 -3 -12 -4 -19 -1 -8 3 -5 6 6 6 11 1 17 -2 13 -5z
m5510 0 c-3 -3 -12 -4 -19 -1 -8 3 -5 6 6 6 11 1 17 -2 13 -5z m70 -20 c-3 -3
-12 -4 -19 -1 -8 3 -5 6 6 6 11 1 17 -2 13 -5z m88 -24 c13 -5 14 -9 5 -9 -8
0 -24 4 -35 9 -13 5 -14 9 -5 9 8 0 24 -4 35 -9z m70 -20 c13 -5 14 -9 5 -9
-8 0 -24 4 -35 9 -13 5 -14 9 -5 9 8 0 24 -4 35 -9z m295 -102 c10 -6 7 -7
-10 -2 -14 3 -32 11 -40 16 -10 6 -7 7 10 2 14 -3 32 -11 40 -16z m110 -28
c-12 -8 -12 -10 -1 -10 8 0 12 -2 9 -5 -3 -3 -13 -2 -22 1 -14 5 -15 9 -4 15
7 5 18 9 23 9 6 0 3 -5 -5 -10z m50 -20 c-12 -8 -12 -10 -1 -10 8 0 12 -2 9
-5 -3 -3 -13 -2 -22 1 -14 5 -15 9 -4 15 7 5 18 9 23 9 6 0 3 -5 -5 -10z m50
-20 c-12 -8 -12 -10 -1 -10 8 0 12 -2 9 -5 -3 -3 -13 -2 -22 1 -14 5 -15 9 -4
15 7 5 18 9 23 9 6 0 3 -5 -5 -10z m50 -20 c-12 -8 -12 -10 -1 -10 8 0 12 -2
9 -5 -3 -3 -13 -2 -22 1 -14 5 -15 9 -4 15 7 5 18 9 23 9 6 0 3 -5 -5 -10z
m-500 -3675 c-7 -8 -17 -15 -23 -15 -6 0 -2 7 9 15 25 19 30 19 14 0z"/>
<path d="M10510 14371 c0 -6 4 -13 10 -16 6 -3 7 1 4 9 -7 18 -14 21 -14 7z"/>
<path d="M6215 13819 c-4 -6 -5 -12 -2 -15 2 -3 7 2 10 11 7 17 1 20 -8 4z"/>
<path d="M6116 13633 c-6 -14 -5 -15 5 -6 7 7 10 15 7 18 -3 3 -9 -2 -12 -12z"/>
<path d="M6086 13573 c-6 -14 -5 -15 5 -6 7 7 10 15 7 18 -3 3 -9 -2 -12 -12z"/>
<path d="M5367 12700 c-174 -26 -319 -49 -322 -52 -5 -5 -554 -1514 -569
-1564 -6 -20 16 -14 246 61 139 45 312 99 383 120 72 21 133 40 137 44 6 5
177 567 182 596 1 6 5 16 9 23 5 6 6 12 3 12 -3 0 24 84 59 188 56 168 87 252
194 540 27 72 28 82 13 81 -9 -1 -160 -23 -335 -49z"/>
<path d="M4405 10981 c-3 -6 -11 -9 -16 -6 -5 4 -9 1 -9 -5 0 -7 -6 -10 -14
-7 -8 3 -16 2 -18 -3 -2 -6 -16 -11 -31 -12 -16 -1 -33 -8 -38 -15 -6 -6 -17
-9 -25 -6 -8 3 -14 0 -14 -6 0 -6 -7 -8 -17 -4 -12 5 -14 3 -8 -7 6 -10 4 -12
-7 -7 -9 3 -19 3 -22 -1 -4 -3 -14 -7 -22 -8 -9 -1 -23 -6 -32 -10 -9 -4 -24
-8 -32 -10 -50 -10 -106 -28 -115 -38 -5 -6 -19 -13 -30 -14 -11 -2 -23 -8
-26 -14 -3 -5 -9 -9 -13 -9 -3 1 -8 0 -11 0 -3 -1 -9 -3 -15 -4 -5 -1 -14 -3
-20 -4 -5 0 -10 -7 -10 -15 0 -16 -37 -29 -42 -15 -2 6 -12 3 -23 -6 -20 -15
-20 -15 0 -9 19 5 19 5 1 -6 -15 -10 -20 -9 -27 1 -7 11 -9 11 -9 -3 0 -20
-56 -42 -64 -25 -2 7 -5 5 -5 -4 -1 -19 -27 -32 -43 -22 -6 3 -8 1 -5 -4 4 -6
-1 -14 -10 -17 -9 -4 -20 -1 -25 6 -6 10 -8 9 -8 -3 0 -19 -26 -33 -42 -22 -7
3 -8 1 -4 -5 7 -11 3 -14 -26 -16 -7 -1 -19 -7 -27 -14 -7 -7 -20 -11 -28 -8
-9 4 -11 2 -7 -6 5 -8 2 -9 -9 -5 -10 4 -17 1 -17 -6 0 -8 -4 -6 -10 3 -8 13
-10 12 -10 -3 0 -10 -4 -15 -10 -12 -5 3 -10 1 -10 -5 0 -6 -4 -8 -10 -5 -5 3
-10 1 -10 -5 0 -6 -4 -8 -10 -5 -5 3 -10 2 -10 -3 0 -13 -50 -33 -63 -26 -7 4
-9 3 -4 -1 4 -5 -10 -16 -30 -25 -27 -12 -40 -14 -45 -6 -5 7 -8 5 -8 -5 0
-20 -27 -33 -34 -16 -2 7 -5 3 -6 -8 l-1 -20 -9 20 c-8 19 -9 19 -9 1 -1 -11
-4 -17 -7 -13 -4 3 -13 -1 -21 -9 -8 -8 -18 -12 -23 -9 -4 3 -11 -2 -14 -11
-4 -9 -13 -14 -21 -10 -8 3 -15 1 -15 -5 0 -6 -4 -7 -10 -4 -5 3 -10 2 -10 -3
0 -10 -118 -66 -137 -65 -7 0 -10 -4 -6 -10 4 -6 0 -8 -10 -4 -10 3 -17 2 -17
-3 0 -6 -6 -10 -14 -10 -8 0 -33 -12 -56 -27 -23 -16 -45 -26 -47 -25 -3 2 -9
-2 -14 -10 -5 -7 -12 -13 -16 -14 -17 -1 -62 -27 -58 -34 2 -3 -10 -15 -27
-25 -17 -10 -28 -13 -24 -6 4 6 2 11 -3 11 -6 0 -11 -6 -11 -13 0 -19 -37 -40
-43 -24 -3 7 -6 5 -6 -4 -1 -14 -106 -87 -134 -92 -6 -1 -19 -10 -30 -21 -14
-13 -21 -15 -27 -6 -5 8 -9 4 -14 -12 -5 -19 -8 -20 -16 -8 -8 13 -10 13 -10
-2 0 -9 -5 -20 -12 -24 -7 -5 -9 -2 -4 7 5 9 3 9 -6 -1 -19 -22 -78 -63 -78
-54 0 4 -7 -1 -16 -12 -8 -10 -13 -12 -9 -4 4 10 2 9 -8 -2 -8 -10 -19 -18
-26 -18 -6 0 -11 -5 -11 -11 0 -5 -4 -7 -10 -4 -5 3 -10 2 -10 -3 0 -4 -16
-14 -35 -22 -19 -8 -35 -17 -35 -20 0 -8 -52 -34 -63 -31 -5 1 -6 -2 -4 -6 3
-5 -1 -13 -8 -20 -11 -10 -15 -10 -18 0 -4 9 -6 8 -6 -1 -1 -19 -31 -48 -31
-30 0 7 -12 0 -26 -15 -14 -15 -29 -25 -35 -22 -5 4 -9 0 -9 -8 0 -8 -7 -18
-16 -21 -8 -3 -13 -10 -10 -15 4 -5 -5 -8 -18 -7 -16 2 -23 -2 -22 -13 0 -8
-4 -16 -10 -16 -7 0 -22 -11 -34 -25 -12 -14 -19 -19 -15 -13 4 9 1 11 -9 7
-9 -3 -14 -10 -11 -14 2 -4 -4 -15 -15 -25 -11 -10 -20 -15 -20 -11 0 4 -12
-6 -26 -21 -14 -15 -22 -21 -18 -13 3 8 -8 -1 -25 -20 -18 -19 -29 -28 -25
-20 4 8 -10 -3 -30 -25 -21 -22 -34 -33 -31 -25 4 8 -10 -4 -30 -28 -28 -32
-42 -41 -56 -37 -11 4 -19 3 -18 -2 3 -19 -2 -46 -7 -40 -4 3 -18 -3 -32 -13
-13 -11 -31 -20 -39 -20 -8 0 -11 -5 -8 -10 4 -6 -18 -32 -47 -58 -68 -61
-175 -167 -157 -157 8 5 6 -1 -5 -13 -10 -12 -23 -19 -29 -15 -5 3 -7 2 -4 -4
8 -13 -47 -66 -58 -56 -4 5 -5 2 0 -6 5 -9 -14 -34 -61 -80 -38 -36 -60 -60
-49 -52 11 8 3 -2 -18 -22 -20 -20 -37 -41 -37 -46 0 -6 -7 -11 -16 -11 -11 0
-15 -6 -11 -19 3 -14 1 -18 -9 -14 -8 3 -14 0 -14 -7 0 -6 -5 -8 -12 -4 -7 5
-9 2 -6 -8 4 -8 -2 -23 -14 -32 -12 -11 -18 -25 -15 -37 3 -10 1 -17 -4 -14
-13 8 -48 -17 -42 -30 2 -7 -3 -19 -11 -28 -9 -9 -16 -21 -16 -27 0 -6 -7 -13
-15 -16 -8 -4 -15 -12 -15 -20 0 -8 -4 -14 -10 -14 -5 0 -10 -7 -10 -15 0 -8
-5 -15 -11 -15 -5 0 -7 -4 -4 -10 3 -5 1 -10 -5 -10 -6 0 -9 -4 -5 -9 3 -6 -3
-14 -12 -20 -11 -6 -13 -11 -5 -11 7 0 10 -5 7 -10 -4 -6 -11 -7 -17 -4 -6 4
-8 2 -4 -4 3 -6 -2 -15 -11 -21 -11 -6 -13 -11 -5 -11 10 0 10 -5 1 -22 -7
-13 -15 -25 -18 -28 -3 -3 -19 -33 -35 -67 -16 -34 -33 -60 -37 -57 -4 2 -11
-1 -15 -7 -4 -8 -3 -9 4 -5 17 10 15 -1 -12 -58 -13 -28 -29 -65 -37 -83 -7
-17 -17 -29 -21 -27 -4 3 -5 -2 -2 -10 3 -9 1 -16 -5 -16 -6 0 -8 -7 -5 -15 4
-10 0 -15 -12 -15 -15 0 -16 -2 -5 -9 11 -7 10 -11 -5 -20 -13 -7 -15 -10 -5
-11 11 0 9 -4 -5 -15 -14 -11 -16 -15 -4 -15 12 0 10 -4 -4 -15 -14 -11 -16
-15 -5 -15 12 0 12 -2 0 -9 -8 -5 -11 -16 -8 -24 3 -9 -1 -18 -11 -22 -14 -5
-14 -7 -2 -16 13 -8 12 -11 -4 -20 -15 -9 -16 -13 -5 -20 8 -5 9 -9 3 -9 -6 0
-11 -10 -10 -22 1 -13 -4 -33 -11 -44 -8 -12 -13 -26 -12 -30 1 -5 1 -11 -1
-14 -4 -13 -13 -68 -14 -95 0 -16 -5 -33 -11 -37 -7 -5 -6 -8 1 -8 6 0 11 -7
11 -15 0 -8 -4 -12 -8 -10 -3 3 -9 -5 -12 -16 -4 -16 -2 -19 11 -15 15 5 15 5
0 -8 -16 -11 -18 -29 -15 -144 2 -89 7 -135 16 -146 11 -13 11 -16 0 -16 -9 0
-10 -3 -3 -8 5 -4 11 -25 12 -47 2 -69 3 -75 12 -75 4 0 7 -8 5 -17 -1 -10 4
-28 11 -40 11 -18 12 -23 2 -23 -7 0 -5 -5 5 -11 14 -8 16 -14 6 -25 -9 -11
-8 -14 5 -14 9 0 16 -7 16 -15 0 -8 -5 -15 -11 -15 -5 0 -7 -5 -4 -10 4 -6 11
-8 16 -5 5 3 6 -1 3 -9 -3 -9 -2 -16 4 -16 8 0 37 -80 37 -105 0 -5 6 -16 13
-24 7 -7 11 -18 9 -25 -2 -6 3 -17 10 -25 8 -7 12 -20 9 -28 -3 -8 -2 -12 3
-9 5 3 11 -3 14 -14 3 -10 0 -21 -7 -24 -6 -2 -2 -5 9 -5 17 -1 17 -3 5 -11
-13 -8 -13 -10 1 -10 21 0 43 -47 26 -54 -7 -2 -5 -5 4 -5 20 -1 34 -31 16
-32 -7 0 -1 -5 12 -10 15 -6 21 -14 17 -25 -3 -8 -2 -12 4 -9 9 6 14 -8 11
-27 0 -5 4 -8 11 -8 6 0 8 -3 5 -7 -4 -3 2 -12 13 -20 11 -8 20 -21 20 -29 0
-8 5 -14 10 -14 6 0 10 -5 10 -11 0 -5 -6 -7 -12 -4 -7 4 -5 0 4 -8 10 -8 15
-17 11 -20 -3 -4 -1 -7 5 -7 7 0 12 -6 12 -14 0 -8 7 -16 15 -20 8 -3 15 -12
15 -19 0 -8 10 -22 23 -31 12 -9 15 -14 7 -10 -10 5 -8 -1 5 -17 34 -41 66
-69 78 -69 9 0 9 -2 0 -8 -8 -5 -1 -20 24 -50 19 -23 40 -39 45 -36 7 4 8 2 4
-4 -4 -7 -3 -12 3 -12 6 0 18 -16 27 -35 9 -19 20 -32 25 -29 5 3 9 1 9 -5 0
-14 100 -111 115 -111 16 0 47 -35 38 -44 -4 -4 1 -4 12 0 15 6 17 4 12 -10
-4 -9 -3 -15 2 -11 6 3 14 -3 20 -12 6 -10 11 -14 11 -9 0 5 8 0 18 -11 9 -11
25 -22 35 -26 10 -4 15 -12 12 -17 -4 -6 -3 -10 2 -9 16 4 60 -20 67 -36 3 -9
10 -13 16 -10 6 3 13 -1 16 -9 3 -9 12 -16 19 -16 7 0 20 -10 29 -22 9 -13 14
-17 11 -10 -3 6 -3 12 0 12 3 0 12 -15 20 -32 11 -24 14 -28 15 -13 1 19 2 19
14 3 7 -10 16 -15 20 -11 4 4 9 -3 13 -16 4 -17 8 -19 14 -10 6 10 11 7 18
-11 5 -14 10 -18 11 -10 0 12 3 12 14 -2 7 -10 16 -15 19 -11 4 3 9 -2 13 -11
3 -9 10 -13 15 -11 4 3 17 -2 27 -12 10 -10 25 -19 33 -21 8 -2 20 -10 27 -19
6 -9 12 -13 12 -8 0 5 7 0 16 -11 8 -10 13 -12 9 -4 -4 8 1 6 9 -4 9 -11 16
-16 16 -11 0 5 6 0 14 -11 8 -10 17 -16 21 -13 3 4 18 -4 32 -17 15 -14 37
-27 50 -30 13 -4 23 -10 23 -15 0 -8 37 -28 60 -34 3 0 14 -6 25 -12 11 -6 28
-9 38 -8 9 2 17 -1 17 -6 0 -6 4 -7 10 -4 5 3 10 2 10 -2 0 -5 9 -9 21 -10 11
-1 33 -10 47 -20 15 -9 29 -18 32 -19 3 -1 20 -5 37 -9 19 -4 30 -12 26 -18
-3 -6 -1 -7 5 -3 9 5 97 -29 112 -44 3 -3 14 -5 25 -4 11 0 26 -4 33 -9 6 -5
12 -6 12 -3 0 4 10 1 23 -6 12 -7 25 -11 30 -10 4 1 7 -2 7 -8 0 -5 7 -7 15
-4 10 4 15 0 16 -12 0 -11 3 -14 6 -6 8 20 23 14 24 -10 1 -17 2 -19 6 -5 2 9
9 17 14 17 6 0 7 -4 4 -10 -3 -6 1 -7 9 -4 9 3 16 2 16 -4 0 -6 10 -8 22 -4
15 4 19 2 13 -7 -6 -10 -2 -11 15 -6 16 5 20 4 15 -5 -5 -9 -2 -10 14 -5 16 5
21 2 21 -12 0 -15 2 -16 11 -3 7 11 12 12 15 3 3 -7 12 -9 20 -6 9 3 14 -2 15
-13 0 -11 3 -14 6 -7 7 19 23 16 24 -4 0 -11 3 -13 6 -5 7 18 23 15 24 -5 0
-11 3 -13 6 -5 2 6 11 12 19 12 9 0 12 -4 9 -10 -3 -5 2 -9 12 -8 40 3 64 -2
57 -13 -4 -7 0 -9 13 -5 21 7 61 -4 62 -16 1 -5 1 -11 1 -15 0 -5 4 -3 8 4 10
16 62 4 63 -16 0 -10 2 -11 6 -3 2 6 11 12 19 12 9 0 13 -4 9 -9 -3 -5 -1 -12
5 -16 5 -3 10 -1 10 4 0 6 7 11 16 11 8 0 13 -4 9 -9 -3 -5 -1 -12 5 -16 5 -3
10 -1 10 4 0 6 7 11 16 11 8 0 13 -4 9 -9 -3 -5 -1 -12 5 -16 5 -3 10 -1 10 4
0 6 7 11 16 11 8 0 13 -4 9 -9 -3 -5 -1 -12 5 -16 5 -3 10 -1 10 4 0 6 7 11
16 11 8 0 12 -5 9 -10 -4 -7 3 -8 21 -4 16 4 25 3 21 -3 -3 -5 6 -8 24 -5 23
3 29 0 30 -14 0 -11 3 -14 6 -6 2 6 11 12 19 12 9 0 13 -4 10 -9 -3 -5 1 -11
8 -14 8 -3 16 -1 18 5 3 8 11 9 24 3 10 -4 23 -7 28 -6 5 1 17 -6 27 -15 11
-10 19 -12 19 -6 0 7 5 12 11 12 5 0 7 -4 4 -10 -3 -5 -2 -10 4 -10 5 0 17 -3
27 -7 12 -5 15 -3 9 6 -4 8 2 7 17 -3 14 -9 27 -13 31 -10 4 4 17 0 29 -7 13
-8 39 -14 58 -14 19 0 37 -3 40 -7 5 -6 176 -38 205 -38 8 0 15 8 16 18 0 14
3 13 16 -6 15 -22 43 -30 43 -13 0 13 33 8 49 -7 8 -8 17 -10 20 -5 8 11 63
14 56 3 -6 -10 21 -21 30 -12 9 9 55 10 49 1 -2 -4 3 -9 11 -13 8 -3 17 -1 20
4 6 9 65 9 62 0 -2 -5 9 -11 16 -9 28 8 52 6 71 -6 20 -13 24 -14 29 -2 6 17
-67 61 -88 53 -8 -3 -17 -1 -20 5 -4 5 -11 7 -16 4 -5 -4 -9 -1 -9 5 0 7 -7 9
-16 6 -8 -3 -12 -2 -9 4 3 6 -1 10 -9 10 -9 0 -16 5 -16 11 0 5 -4 7 -10 4 -6
-3 -10 0 -10 7 0 10 -2 10 -9 -1 -7 -11 -14 -9 -34 11 -18 18 -29 22 -36 15
-7 -7 -12 -5 -17 6 -3 9 -10 14 -15 11 -5 -3 -23 5 -41 17 -17 13 -28 17 -23
9 5 -9 4 -11 -3 -6 -7 4 -12 15 -12 24 0 13 -2 14 -9 4 -7 -11 -11 -11 -23 2
-9 8 -18 13 -20 11 -3 -3 -22 4 -44 14 -21 11 -42 17 -46 14 -5 -2 -8 1 -8 7
0 6 -4 8 -10 5 -5 -3 -10 -1 -10 5 0 6 -5 8 -10 5 -6 -3 -10 2 -10 12 0 14 -2
15 -9 5 -7 -11 -11 -11 -23 2 -9 8 -18 13 -21 10 -7 -7 -57 18 -57 28 0 5 -4
6 -10 3 -5 -3 -10 2 -10 12 0 11 -3 14 -8 7 -5 -8 -15 -8 -35 1 -15 6 -24 15
-20 19 4 4 0 4 -9 1 -8 -3 -22 1 -31 9 -8 8 -17 12 -21 9 -3 -4 -6 -1 -6 6 0
7 -4 9 -10 6 -5 -3 -10 2 -10 12 0 15 -2 16 -10 3 -7 -11 -10 -11 -10 -2 0 7
-4 11 -9 8 -13 -8 -42 4 -35 15 3 5 -1 6 -9 3 -8 -3 -21 2 -30 10 -8 8 -17 12
-21 9 -3 -4 -6 2 -6 13 0 16 -2 17 -10 4 -7 -11 -10 -11 -10 -2 0 7 -4 11 -9
7 -13 -7 -62 16 -55 26 3 5 -2 6 -10 3 -11 -4 -16 0 -16 12 0 16 -2 17 -10 4
-8 -12 -10 -12 -10 5 0 17 -2 17 -10 5 -8 -12 -10 -12 -10 5 0 15 -3 16 -9 7
-6 -11 -11 -10 -25 3 -9 9 -16 20 -16 25 0 4 -9 6 -20 3 -12 -3 -20 0 -20 8 0
7 -3 10 -6 6 -3 -3 -15 2 -26 12 -26 25 -98 53 -98 38 0 -6 -7 -2 -16 9 -8 10
-12 13 -8 5 4 -9 2 -12 -7 -9 -8 3 -13 10 -12 16 1 5 -7 8 -17 5 -12 -3 -20 0
-20 6 0 7 -4 9 -10 6 -5 -3 -10 -2 -10 4 0 6 -7 7 -17 4 -11 -4 -14 -3 -9 5 6
11 -12 17 -36 13 -5 0 -8 4 -8 10 0 5 -4 8 -9 5 -5 -4 -11 -3 -13 2 -1 4 -33
20 -70 36 -38 15 -68 33 -68 38 0 5 -4 6 -10 3 -5 -3 -10 2 -11 12 0 16 -1 16
-9 -2 -5 -11 -9 -14 -9 -7 -1 7 -5 10 -11 7 -5 -3 -10 -1 -10 5 0 6 -4 8 -10
5 -6 -3 -10 4 -11 17 0 22 -1 22 -9 3 -5 -11 -9 -14 -9 -7 -1 7 -5 10 -11 7
-5 -3 -10 -1 -10 5 0 6 -4 9 -10 5 -5 -3 -18 2 -28 12 -10 10 -25 19 -33 21
-8 2 -16 8 -17 13 -2 5 -8 7 -13 3 -5 -3 -9 3 -9 13 0 15 -2 16 -10 3 -8 -12
-10 -12 -11 5 0 11 -3 14 -6 8 -7 -18 -63 13 -63 35 0 13 -2 14 -9 3 -7 -11
-12 -10 -28 5 -11 11 -25 20 -32 22 -24 5 -61 34 -61 48 0 8 -5 14 -11 14 -5
0 -7 -5 -3 -12 4 -7 3 -8 -4 -4 -7 4 -12 15 -12 24 0 13 -2 14 -9 4 -6 -10
-13 -7 -30 15 -13 15 -20 21 -16 13 4 -10 2 -9 -8 3 -8 9 -19 17 -26 17 -6 0
-11 9 -11 21 0 14 -5 19 -14 16 -8 -3 -22 4 -33 15 -12 15 -13 19 -3 14 8 -5
2 3 -15 17 -16 14 -33 23 -36 21 -8 -4 -43 36 -52 60 -4 11 -10 17 -13 14 -8
-8 -75 63 -68 73 3 5 -1 9 -8 9 -7 0 -23 15 -35 33 -25 36 -29 52 -11 41 7 -4
8 -3 4 5 -4 6 -12 9 -17 6 -5 -4 -23 22 -39 56 -22 47 -26 65 -17 71 9 6 8 8
-4 8 -16 0 -47 73 -41 98 2 6 -3 12 -10 12 -10 0 -10 2 0 9 11 7 10 9 -3 15
-9 3 -13 10 -10 16 3 5 1 10 -5 10 -7 0 -10 7 -6 15 3 8 1 15 -5 15 -6 0 -8 9
-4 21 5 15 4 19 -4 15 -6 -4 -11 -1 -11 8 0 8 6 17 13 19 7 3 5 6 -5 6 -17 1
-23 21 -19 64 1 9 -3 17 -9 17 -6 0 -8 5 -4 11 3 6 1 15 -6 19 -15 9 -17 117
-2 132 8 8 8 17 1 30 -5 10 -6 24 -2 31 4 6 6 20 4 31 -2 12 1 16 10 10 9 -5
10 -2 6 10 -9 22 12 98 24 90 5 -3 6 2 3 10 -3 9 -1 16 5 16 6 0 10 3 8 8 -4
15 36 91 46 85 6 -3 7 -1 3 5 -8 13 52 114 64 107 5 -3 12 0 16 6 5 8 3 9 -6
4 -8 -5 -11 -3 -8 6 3 8 10 14 16 14 5 0 14 4 19 9 5 5 3 6 -4 2 -7 -4 -13 -3
-13 3 0 5 8 11 17 13 10 2 18 12 18 23 0 11 7 20 15 20 8 0 15 8 15 17 0 10
14 31 30 47 17 16 36 36 43 45 7 9 17 14 23 11 5 -4 9 -1 9 4 0 6 0 13 0 16 1
8 52 60 60 60 9 0 91 90 91 101 1 4 -5 10 -13 15 -9 6 -6 8 9 6 12 0 19 -5 17
-9 -3 -4 0 -8 5 -8 6 0 11 7 11 16 0 8 5 12 10 9 6 -4 9 -2 8 3 -5 16 72 103
84 96 7 -4 8 -2 4 5 -4 6 0 14 11 18 10 4 28 20 41 35 13 15 28 25 33 22 5 -3
8 0 7 7 -2 7 2 13 8 14 6 0 23 14 38 30 15 17 25 25 22 19 -3 -6 1 -11 9 -11
8 0 12 4 9 9 -8 13 16 39 29 31 5 -3 7 -1 3 5 -3 6 -2 13 4 17 5 3 10 0 10 -7
0 -7 9 2 20 20 18 30 23 32 37 20 9 -7 14 -8 10 -2 -4 6 2 19 13 29 11 10 20
15 20 11 0 -4 12 6 26 21 14 15 22 21 19 13 -4 -8 4 -3 17 12 14 15 28 25 32
21 3 -3 6 -1 6 5 0 7 6 12 14 12 8 0 16 7 20 15 3 8 23 23 46 32 22 10 40 21
40 25 0 5 6 8 14 8 8 0 23 11 34 25 11 13 22 22 25 18 4 -3 9 2 13 11 4 9 27
31 52 48 25 17 42 26 38 20 -4 -7 -3 -12 2 -12 5 0 12 9 15 21 3 12 10 18 15
15 6 -3 13 1 16 10 3 8 10 13 15 10 5 -3 12 1 15 10 3 8 10 13 15 10 5 -3 12
1 15 10 4 9 9 14 13 11 3 -4 12 1 19 11 11 14 14 14 14 2 1 -11 3 -10 9 3 4
10 10 18 14 18 4 -1 17 9 28 20 17 17 23 19 30 8 7 -11 9 -10 9 3 0 10 9 22
20 28 11 6 20 7 20 3 0 -4 7 2 15 13 8 10 15 15 15 11 0 -4 10 1 22 12 11 11
25 18 30 15 4 -3 8 0 8 6 0 6 5 8 10 5 6 -3 13 1 16 9 3 9 10 13 15 10 5 -3 9
-1 9 4 0 10 47 27 63 23 5 -1 6 3 2 9 -3 5 -1 10 5 10 6 0 9 4 6 8 -2 4 4 9
15 10 43 4 48 6 53 19 3 8 10 12 15 8 5 -3 12 -1 16 5 3 5 12 10 18 10 8 0 8
-3 -1 -9 -10 -6 115 -185 483 -692 274 -376 505 -691 515 -700 10 -9 21 -31
23 -50 3 -19 3 18 0 83 -3 78 -1 118 7 123 6 4 10 35 9 78 -1 40 1 108 5 152
3 44 8 109 10 145 7 92 21 238 40 420 4 30 8 73 10 95 9 85 15 141 20 175 2
19 7 60 11 90 11 96 86 634 92 660 5 25 5 25 -12 5 -9 -11 -14 -14 -10 -7 3 6
3 12 0 12 -11 0 -325 -136 -474 -205 -75 -34 -273 -131 -440 -214 -167 -83
-305 -151 -306 -151 -2 0 -6 7 -9 16 -3 8 -2 13 3 9 12 -7 35 61 25 76 -4 7
-3 9 3 6 12 -8 37 59 27 74 -4 7 -3 10 2 6 5 -3 41 83 78 191 38 108 121 339
183 512 62 173 111 320 108 328 -2 7 -1 11 4 7 12 -7 45 91 35 106 -4 7 -3 9
4 5 13 -8 47 89 36 105 -4 7 -3 9 4 5 13 -8 47 89 36 105 -4 7 -3 9 4 5 13 -8
47 89 36 105 -4 7 -3 9 4 6 12 -8 55 110 45 126 -4 6 -1 7 7 2 10 -6 12 -3 8
13 -4 14 -2 20 5 15 6 -4 8 2 4 16 -3 13 -3 20 1 17 7 -8 24 37 121 317 40
114 69 212 65 219 -5 7 -3 8 6 3 10 -6 12 -3 8 13 -4 12 -2 20 2 17 4 -3 13 9
19 27 11 31 9 49 -4 29z m-1588 -713 c-3 -8 -6 -5 -6 6 -1 11 2 17 5 13 3 -3
4 -12 1 -19z m-897 -563 c0 -2 -10 -9 -22 -15 -22 -11 -22 -10 -4 4 21 17 26
19 26 11z m2810 -665 c-8 -5 -19 -10 -25 -10 -5 0 -3 5 5 10 8 5 20 10 25 10
6 0 3 -5 -5 -10z m-50 -20 c-8 -5 -19 -10 -25 -10 -5 0 -3 5 5 10 8 5 20 10
25 10 6 0 3 -5 -5 -10z m-60 -25 c-14 -8 -29 -14 -35 -14 -5 0 1 6 15 14 14 8
30 14 35 14 6 0 -1 -6 -15 -14z m-80 -35 c-19 -11 -39 -19 -45 -19 -5 0 6 8
25 19 19 11 40 19 45 19 6 0 -6 -8 -25 -19z m-90 -40 c-19 -11 -39 -19 -45
-19 -5 0 6 8 25 19 19 11 40 19 45 19 6 0 -6 -8 -25 -19z m-90 -40 c-19 -11
-39 -19 -45 -19 -5 0 6 8 25 19 19 11 40 19 45 19 6 0 -6 -8 -25 -19z m-140
-65 c-47 -24 -89 -44 -95 -44 -5 0 28 20 75 44 47 24 90 44 95 44 6 0 -28 -20
-75 -44z m-610 -300 c0 -2 -10 -9 -22 -15 -22 -11 -22 -10 -4 4 21 17 26 19
26 11z m-840 -495 c-8 -5 -19 -10 -25 -10 -5 0 -3 5 5 10 8 5 20 10 25 10 6 0
3 -5 -5 -10z m-725 -620 c-16 -16 -31 -27 -34 -24 -5 4 48 53 58 54 3 0 -8
-13 -24 -30z m-84 -1707 c13 -17 13 -17 -6 -3 -11 8 -22 16 -24 17 -2 2 0 3 6
3 6 0 17 -8 24 -17z m-74 -529 c-3 -3 -12 -4 -19 -1 -8 3 -5 6 6 6 11 1 17 -2
13 -5z"/>
<path d="M14370 10910 c0 -5 5 -10 11 -10 5 0 7 5 4 10 -3 6 -8 10 -11 10 -2
0 -4 -4 -4 -10z"/>
<path d="M993 8943 c4 -3 1 -13 -6 -22 -11 -14 -10 -14 5 -2 16 12 16 31 1 31
-4 0 -3 -3 0 -7z"/>
<path d="M2908 8093 c7 -3 16 -2 19 1 4 3 -2 6 -13 5 -11 0 -14 -3 -6 -6z"/>
<path d="M15259 7543 c-13 -16 -12 -17 4 -4 9 7 17 15 17 17 0 8 -8 3 -21 -13z"/>
<path d="M14870 7125 c-24 -25 -42 -45 -39 -45 3 0 25 20 49 45 24 25 42 45
39 45 -3 0 -25 -20 -49 -45z"/>
<path d="M4586 6941 c1 -34 -1 -61 -5 -61 -4 0 -6 -75 -4 -166 2 -91 0 -163
-5 -160 -5 3 -9 -1 -9 -9 0 -8 4 -12 8 -10 4 3 5 -4 2 -15 -3 -11 -9 -20 -14
-20 -5 0 -9 -5 -9 -11 0 -5 4 -8 8 -5 10 6 14 -42 5 -57 -10 -17 -11 -47 -1
-53 14 -9 9 -26 -7 -20 -8 3 -15 1 -15 -4 0 -6 8 -10 18 -11 9 0 12 -3 6 -5
-7 -3 -8 -21 -3 -52 4 -26 4 -51 0 -57 -10 -13 -7 -118 4 -135 5 -9 4 -11 -3
-6 -8 5 -12 -2 -12 -18 0 -14 6 -26 13 -26 8 0 7 -4 -3 -10 -8 -5 -10 -10 -4
-10 7 0 11 -16 10 -40 0 -22 4 -42 9 -44 6 -3 4 -5 -2 -5 -7 -1 -13 -6 -13
-12 0 -5 5 -7 10 -4 12 7 7 -231 -5 -275 -5 -20 -5 -22 5 -10 10 12 11 11 7
-7 -3 -13 -2 -23 2 -23 12 0 11 -143 -2 -158 -9 -12 -9 -16 0 -19 7 -2 9 -11
6 -19 -3 -8 -1 -14 5 -14 5 0 9 -35 8 -85 -2 -47 1 -85 4 -85 4 0 6 -28 5 -62
-1 -35 1 -67 5 -73 10 -15 9 -78 -3 -92 -6 -9 -5 -18 4 -30 16 -19 20 -60 7
-85 -5 -10 -4 -18 3 -20 13 -4 19 -68 7 -90 -5 -12 -5 -18 2 -18 5 0 9 -3 9
-7 -1 -5 0 -10 1 -13 1 -3 3 -25 6 -50 2 -25 5 -63 8 -85 3 -22 7 -64 10 -93
2 -30 7 -56 10 -59 2 -3 1 -16 -5 -30 -5 -13 -5 -22 0 -19 12 8 20 -39 10 -56
-4 -7 -3 -18 2 -25 6 -6 12 -40 15 -74 3 -34 8 -79 13 -99 5 -21 7 -51 6 -69
-2 -17 2 -31 7 -31 5 0 6 -4 3 -10 -3 -5 -2 -10 2 -10 5 0 9 -8 9 -19 0 -12
-6 -17 -16 -14 -10 3 -8 0 3 -7 11 -7 18 -22 16 -38 -1 -15 2 -35 6 -44 4 -10
5 -24 2 -32 -3 -7 -1 -18 5 -24 8 -8 7 -16 -2 -27 -11 -14 -11 -16 1 -13 10 2
14 -6 13 -29 -1 -18 2 -30 7 -27 6 3 7 -8 4 -25 -3 -18 -1 -31 5 -31 5 0 7
-13 3 -32 -4 -22 -3 -29 5 -24 15 9 15 -9 1 -36 -9 -17 -9 -20 4 -15 16 6 17
-9 3 -32 -6 -10 -3 -19 10 -28 15 -11 16 -15 5 -22 -7 -5 -10 -14 -7 -20 4 -6
12 -9 17 -6 5 4 9 -1 9 -9 0 -9 -5 -16 -11 -16 -6 0 -9 -6 -6 -12 2 -7 10 -12
16 -11 6 2 11 -2 11 -7 0 -6 -5 -10 -11 -10 -6 0 -9 -6 -6 -12 2 -7 10 -12 16
-11 13 3 15 -13 2 -21 -9 -6 -8 -33 4 -85 3 -17 7 -34 7 -38 0 -5 5 -17 11
-28 6 -11 10 -24 9 -29 -2 -4 3 -14 9 -22 7 -8 9 -17 6 -20 -3 -3 3 -22 14
-41 11 -19 15 -32 9 -28 -16 10 -12 -11 5 -25 13 -11 13 -15 3 -21 -11 -7 -11
-9 0 -9 7 0 10 -4 7 -10 -3 -5 0 -10 7 -10 11 0 11 -2 0 -9 -11 -7 -11 -11 2
-23 8 -9 12 -18 9 -22 -3 -3 -1 -12 5 -19 7 -8 9 -17 5 -21 -4 -4 -1 -11 7
-17 13 -8 13 -10 0 -19 -13 -9 -7 -14 13 -11 6 1 11 -24 10 -56 -1 -7 3 -13 7
-13 13 0 19 -54 7 -62 -8 -5 -6 -8 6 -8 16 0 21 -16 20 -57 -1 -7 4 -13 9 -13
5 0 6 -10 3 -21 -5 -16 -4 -19 6 -14 9 6 11 2 7 -13 -4 -12 -2 -22 4 -22 6 0
8 -7 4 -15 -3 -8 -2 -15 3 -15 10 0 32 -71 25 -82 -3 -4 0 -8 7 -8 6 0 9 -8 6
-20 -3 -11 -1 -18 4 -14 5 3 9 -2 9 -11 0 -10 -5 -14 -12 -10 -7 4 -4 -1 6 -9
11 -9 16 -16 10 -16 -5 0 -3 -4 4 -9 8 -5 15 -20 15 -34 1 -14 6 -23 11 -19 5
3 7 -2 3 -11 -4 -10 -2 -17 4 -17 6 0 8 -7 5 -16 -4 -10 -2 -13 6 -8 7 5 9 0
6 -14 -4 -14 -2 -20 5 -15 6 4 8 -2 5 -15 -4 -12 -3 -20 2 -17 4 3 10 -4 13
-15 3 -11 1 -18 -4 -14 -5 3 -6 -2 -3 -10 3 -9 10 -16 15 -16 4 0 5 -7 2 -17
-4 -11 -3 -14 5 -9 11 7 13 3 16 -36 1 -7 6 -19 13 -26 7 -7 10 -19 7 -27 -4
-8 -1 -15 5 -15 6 0 11 -10 11 -22 0 -13 7 -36 15 -52 9 -16 13 -31 11 -34 -3
-2 2 -11 10 -19 8 -9 13 -20 11 -27 -2 -6 3 -17 12 -24 9 -8 10 -11 4 -7 -9 4
-11 1 -7 -9 3 -9 10 -16 15 -16 5 0 9 -7 9 -15 0 -8 6 -15 13 -15 7 0 8 -3 2
-8 -13 -10 -18 -35 -5 -27 5 3 13 -1 16 -10 6 -13 8 -14 15 -3 5 8 7 -6 5 -34
-3 -27 0 -48 5 -48 6 0 7 -4 4 -10 -3 -5 -2 -10 3 -10 5 0 9 -6 9 -14 0 -23
44 -87 55 -80 7 4 8 2 4 -5 -11 -17 3 -51 22 -51 15 0 15 -2 2 -10 -12 -8 -12
-10 5 -10 17 0 17 -2 5 -10 -13 -8 -12 -10 3 -10 10 0 15 -5 12 -10 -3 -6 -2
-10 4 -10 6 0 8 -7 5 -15 -4 -9 0 -15 8 -15 8 0 20 -12 27 -27 11 -24 11 -25
-5 -12 -16 13 -16 12 -5 -9 7 -12 16 -20 20 -17 9 5 100 -145 91 -151 -3 -2 5
-11 18 -19 12 -9 22 -23 22 -31 0 -8 5 -14 10 -14 6 0 10 -5 10 -11 0 -5 -5
-7 -12 -3 -7 4 -8 3 -4 -4 4 -7 14 -12 23 -12 9 0 13 -6 9 -15 -3 -9 0 -15 10
-15 10 0 14 -6 10 -15 -3 -9 0 -15 10 -15 9 0 14 -7 12 -17 -2 -11 2 -17 11
-15 8 2 11 -3 8 -12 -3 -8 1 -17 9 -20 9 -3 13 -10 10 -15 -3 -5 1 -11 9 -15
8 -3 15 -12 15 -21 0 -8 3 -15 8 -15 4 0 18 -18 32 -40 13 -22 28 -40 32 -40
4 0 8 -6 8 -13 0 -8 9 -22 20 -32 11 -10 20 -23 20 -29 0 -6 15 -26 34 -46 71
-73 86 -91 86 -101 0 -6 6 -6 18 0 14 7 19 6 19 -4 0 -8 -5 -11 -10 -8 -6 3
-7 1 -3 -6 4 -6 11 -9 15 -6 10 5 44 -29 36 -37 -3 -2 7 -15 22 -29 14 -13 23
-18 19 -12 -12 21 8 14 22 -7 7 -11 19 -20 26 -20 8 0 24 -14 36 -30 12 -17
25 -28 30 -25 5 3 17 -6 26 -20 9 -13 20 -22 25 -20 4 3 13 -4 19 -15 6 -11
15 -19 20 -17 5 1 16 -7 25 -18 9 -11 14 -13 10 -5 -4 8 2 6 12 -6 10 -11 20
-20 23 -20 24 0 70 -32 71 -49 0 -11 3 -15 5 -9 8 20 44 3 44 -20 0 -17 2 -18
10 -6 7 11 10 11 10 2 0 -7 3 -11 8 -9 9 6 91 -35 92 -45 0 -5 0 -11 0 -15 0
-5 5 -1 10 7 8 12 10 12 10 -5 0 -17 2 -17 10 -5 6 9 10 11 10 3 0 -7 7 -10
17 -6 11 4 14 3 9 -6 -5 -8 -3 -12 5 -10 25 3 54 -2 42 -8 -7 -2 -13 -9 -13
-14 0 -11 23 -7 32 6 4 5 10 2 14 -8 3 -9 10 -17 16 -17 5 0 6 6 3 13 -4 6 0
4 8 -6 8 -10 28 -20 43 -21 16 -2 30 -5 32 -6 1 -1 5 -3 10 -4 4 -1 17 -7 30
-14 18 -10 22 -10 22 0 0 9 3 9 10 -2 14 -22 162 -27 194 -7 17 12 26 13 35 4
8 -8 11 -8 11 2 0 7 4 10 9 6 5 -3 13 0 16 6 4 5 12 8 19 6 7 -3 23 3 36 13
18 13 30 16 47 9 14 -5 23 -5 23 1 0 6 7 10 15 10 9 0 18 6 21 14 3 9 12 12
21 9 11 -4 14 -2 9 5 -4 7 -2 12 3 12 6 0 11 -6 12 -12 0 -7 4 -4 9 7 5 11 9
14 9 7 1 -7 6 -10 11 -7 6 4 8 10 5 15 -6 10 23 22 36 14 5 -3 9 1 9 8 0 9 3
9 10 -2 9 -13 10 -13 10 1 0 20 67 53 74 36 2 -7 5 -4 5 6 1 11 5 15 13 11 8
-5 9 -2 4 11 -5 15 -4 16 9 5 10 -8 15 -9 15 -1 0 13 55 43 64 34 3 -4 6 -1 6
5 0 6 10 16 21 23 17 9 20 8 14 -3 -5 -7 4 0 18 15 15 15 31 26 36 23 5 -3 12
1 15 10 3 8 10 13 15 10 5 -3 12 1 15 10 3 8 10 13 15 10 5 -3 12 1 15 10 3 8
10 13 15 10 5 -3 12 1 15 10 3 8 10 12 16 9 5 -3 10 -2 10 3 0 16 98 74 111
66 8 -4 9 -3 5 5 -5 7 4 16 22 24 16 6 27 17 25 23 -2 6 3 14 12 18 10 4 14 2
9 -5 -4 -8 0 -8 15 0 11 7 20 16 18 22 -1 6 6 13 16 14 10 2 47 33 83 69 36
37 69 64 74 61 4 -2 7 3 6 13 0 9 4 16 11 15 6 -1 28 20 48 48 21 29 40 47 47
43 6 -4 8 -3 5 3 -4 6 20 36 53 67 32 31 68 70 80 86 12 18 27 27 33 24 7 -4
9 -3 4 1 -9 10 21 45 39 45 7 0 19 12 26 28 7 15 18 27 25 27 14 0 28 13 28
27 0 6 9 16 20 22 30 17 55 50 50 65 -4 8 0 11 9 8 10 -4 13 -1 9 9 -3 8 1 14
10 14 9 0 19 5 23 12 4 7 3 8 -4 4 -7 -4 -12 -3 -12 1 0 5 9 14 20 21 11 7 20
19 20 27 0 7 10 21 22 29 12 9 18 16 13 16 -5 0 1 7 13 16 12 8 20 19 17 24
-3 4 2 11 11 14 8 3 13 10 9 15 -3 6 4 15 15 21 11 6 19 14 19 18 -3 20 2 32
13 30 7 -2 13 2 13 7 3 27 18 55 30 55 8 0 17 5 21 12 4 7 3 8 -4 4 -7 -4 -12
-2 -12 3 0 6 6 11 14 11 8 0 18 5 22 12 4 7 3 8 -4 4 -16 -10 -15 2 2 19 7 8
17 11 20 7 4 -3 4 1 0 11 -3 10 -1 17 5 17 6 0 11 7 11 15 0 8 7 15 16 15 8 0
12 5 9 10 -3 6 1 13 9 16 9 3 13 10 10 15 -3 5 5 13 18 18 13 6 18 10 11 10
-7 1 -10 8 -7 16 4 8 10 13 14 10 4 -3 14 3 21 12 10 12 10 14 2 9 -7 -4 -13
-2 -13 3 0 6 6 11 14 11 7 0 21 12 30 27 l17 28 -20 -24 c-25 -28 -27 -20 -5
14 9 14 21 22 27 18 6 -4 8 0 4 11 -4 10 -3 15 3 11 12 -8 33 32 24 48 -4 6
-4 9 1 5 8 -8 45 33 45 51 0 5 6 14 14 18 8 4 14 10 14 13 -3 17 15 49 24 44
7 -5 8 -2 4 5 -9 14 12 71 25 71 5 0 5 7 2 17 -4 11 -3 14 5 9 7 -4 12 -1 12
8 0 9 5 16 11 16 8 0 7 5 -1 16 -11 12 -11 15 0 12 8 -2 14 4 15 12 1 8 6 14
13 12 7 -1 12 5 12 13 0 19 37 94 58 118 8 9 12 17 8 17 -11 0 32 78 46 83 10
4 10 6 1 6 -18 1 -4 31 16 32 9 0 11 3 5 5 -7 3 -10 14 -7 24 3 11 10 17 16
13 5 -3 7 -1 4 5 -9 14 97 234 108 225 4 -5 5 -3 2 4 -9 15 3 44 15 37 5 -3 9
0 7 7 -3 29 2 39 19 39 14 0 15 2 2 10 -9 6 -11 10 -3 10 7 0 10 7 6 17 -4 11
-3 14 5 9 8 -5 10 -2 6 8 -4 11 0 16 12 16 16 0 17 2 4 10 -12 8 -12 10 5 10
17 0 17 2 5 10 -11 7 -11 10 -2 10 14 0 54 79 46 92 -3 4 -1 8 5 8 5 0 12 13
16 30 4 16 10 30 14 30 4 0 7 10 8 22 1 11 7 25 14 29 6 4 10 18 7 33 -3 14
-1 23 3 20 8 -5 13 13 12 44 -1 6 3 12 8 12 5 0 6 7 3 15 -4 10 0 15 12 15 16
0 16 2 4 10 -12 8 -12 11 2 27 18 21 35 68 21 60 -5 -4 -10 0 -10 8 0 8 3 13
6 11 3 -2 15 16 27 40 11 24 16 40 10 37 -6 -4 -4 2 5 13 9 10 14 25 12 32 -3
6 -1 12 4 12 4 0 9 12 10 27 0 15 6 29 12 31 6 2 8 8 5 14 -8 13 26 128 38
128 5 0 6 4 3 10 -8 13 16 91 26 85 4 -3 5 5 1 17 -4 15 -2 19 7 13 9 -5 12
-1 11 11 -4 37 0 65 9 60 5 -4 7 4 3 16 -4 16 -2 19 8 13 10 -6 12 -4 7 8 -4
10 0 20 11 26 9 6 12 11 5 11 -12 0 -12 7 3 45 4 11 8 23 9 28 2 4 4 10 5 15
1 4 3 12 4 17 11 56 20 85 28 85 5 0 7 4 4 9 -8 12 5 72 14 66 4 -2 5 7 2 22
-3 17 -1 24 6 19 6 -4 8 2 5 14 -3 11 -1 20 5 20 6 0 8 10 4 22 -4 16 -2 19 8
13 10 -6 12 -4 7 8 -9 23 3 78 15 71 5 -3 6 6 2 22 -5 21 -4 25 6 19 10 -6 12
-4 7 10 -5 11 -1 22 10 31 11 8 13 13 6 14 -7 0 -13 7 -13 16 0 8 -5 12 -10 9
-6 -4 -8 -11 -5 -16 4 -5 1 -9 -4 -9 -6 0 -11 -7 -11 -15 0 -8 -4 -15 -10 -15
-5 0 -10 -7 -10 -15 0 -8 -4 -15 -10 -15 -5 0 -9 -3 -8 -7 5 -13 -43 -83 -52
-78 -5 3 -11 1 -15 -5 -3 -5 -1 -10 5 -10 6 0 8 -5 5 -10 -4 -6 -10 -8 -15 -5
-5 3 -11 1 -15 -5 -3 -5 -1 -10 5 -10 6 0 8 -5 5 -10 -4 -6 -10 -8 -15 -5 -5
3 -12 0 -16 -6 -5 -8 -3 -9 6 -4 8 5 11 3 8 -6 -3 -8 -10 -14 -16 -14 -5 0
-14 -4 -19 -9 -5 -5 -2 -6 6 -1 9 5 12 3 9 -6 -3 -8 -10 -14 -16 -14 -5 0 -14
-4 -19 -9 -5 -5 -2 -6 6 -1 9 5 12 3 9 -6 -3 -8 -10 -14 -16 -14 -5 0 -14 -4
-19 -9 -5 -5 -2 -6 6 -1 9 5 12 3 9 -6 -3 -8 -10 -14 -16 -14 -5 0 -14 -4 -19
-9 -5 -5 -3 -6 5 -2 6 4 12 2 12 -3 0 -6 -6 -11 -14 -11 -8 0 -18 -5 -22 -12
-4 -7 -3 -8 4 -4 7 4 12 2 12 -3 0 -6 -6 -11 -14 -11 -8 0 -18 -5 -22 -12 -4
-7 -3 -8 4 -4 7 4 12 2 12 -3 0 -6 -7 -11 -15 -11 -8 0 -12 -6 -9 -14 3 -8 -3
-16 -16 -19 -12 -3 -19 -10 -15 -16 3 -6 2 -11 -4 -11 -6 0 -22 -20 -36 -44
-14 -24 -33 -47 -41 -50 -10 -4 -13 -13 -9 -26 5 -15 3 -18 -9 -14 -12 5 -15
2 -10 -10 4 -11 1 -16 -11 -16 -9 0 -13 -4 -10 -10 3 -5 1 -15 -4 -22 -47 -58
-62 -78 -55 -78 4 0 0 -6 -9 -13 -9 -6 -18 -24 -19 -38 -1 -16 -8 -26 -16 -25
-8 1 -16 -8 -18 -18 -1 -11 -15 -30 -31 -43 -15 -14 -22 -22 -15 -18 18 9 15
-10 -5 -26 -15 -12 -16 -12 -8 1 5 9 5 12 -1 7 -5 -5 -9 -12 -9 -15 -2 -24
-18 -52 -30 -52 -8 0 -17 -5 -21 -12 -4 -7 -3 -8 4 -4 7 4 12 2 12 -3 0 -6 -6
-11 -14 -11 -8 0 -18 -5 -22 -12 -4 -7 -3 -8 4 -4 8 5 10 2 6 -8 -3 -9 -12
-16 -19 -16 -8 0 -17 -5 -21 -12 -4 -7 -3 -8 4 -4 7 4 12 3 12 -3 0 -5 -9 -12
-19 -16 -12 -4 -18 -12 -14 -21 3 -8 -1 -14 -10 -14 -9 0 -19 -5 -23 -12 -5
-7 -3 -8 7 -3 12 8 12 6 0 -8 -7 -9 -21 -17 -30 -17 -13 0 -14 -2 -2 -9 12 -8
10 -12 -12 -22 -14 -6 -24 -16 -21 -20 3 -5 0 -9 -6 -9 -6 0 -8 -5 -5 -10 3
-5 -1 -10 -9 -10 -9 0 -16 -9 -16 -20 0 -10 -9 -24 -20 -30 -11 -6 -20 -15
-20 -20 0 -5 -13 -23 -30 -40 -16 -17 -30 -35 -30 -40 0 -6 -7 -10 -16 -10 -8
0 -13 -4 -10 -9 6 -8 -23 -51 -74 -111 -17 -19 -30 -38 -30 -43 0 -4 -16 -21
-35 -38 -19 -17 -33 -34 -30 -39 2 -4 -11 -20 -30 -36 -19 -16 -35 -34 -35
-40 0 -18 -70 -75 -82 -68 -7 4 -8 2 -4 -4 4 -7 3 -12 -3 -12 -6 0 -15 -10
-22 -21 -9 -17 -8 -20 3 -14 7 5 2 -4 -11 -18 -13 -14 -29 -25 -35 -24 -6 1
-10 -3 -9 -9 1 -6 -17 -29 -40 -50 -22 -21 -35 -31 -28 -21 12 15 12 17 -3 11
-9 -3 -16 -10 -16 -15 0 -5 -7 -9 -15 -9 -8 0 -15 -6 -15 -12 0 -17 -59 -80
-69 -73 -5 2 -21 -13 -36 -35 -27 -38 -43 -54 -30 -27 4 6 -5 0 -18 -15 -14
-15 -28 -24 -31 -20 -4 3 -13 -4 -22 -16 -8 -12 -20 -20 -25 -17 -5 4 -9 1 -9
-5 0 -7 -7 -10 -15 -6 -9 3 -15 0 -15 -10 0 -11 -6 -14 -16 -10 -8 3 -13 2
-10 -3 3 -5 -1 -14 -9 -21 -12 -10 -15 -10 -15 1 0 7 -8 2 -17 -11 -10 -14
-16 -29 -15 -35 2 -5 -2 -5 -9 2 -10 10 -15 9 -26 -5 -8 -9 -12 -11 -8 -4 3 6
2 12 -3 12 -11 0 -26 -30 -23 -45 1 -5 -6 -1 -14 9 -8 11 -15 14 -15 7 0 -6
-6 -11 -12 -9 -7 1 -33 -9 -58 -21 -25 -13 -46 -23 -47 -23 -8 5 -71 -33 -67
-40 3 -4 -2 -5 -10 -2 -9 3 -16 1 -16 -6 0 -6 -4 -9 -9 -5 -5 3 -13 0 -17 -6
-4 -8 -9 -7 -15 2 -7 11 -9 10 -9 -5 0 -13 -5 -16 -17 -12 -9 4 -20 1 -25 -6
-6 -10 -10 -10 -18 2 -9 13 -14 8 -12 -11 2 -11 -48 -20 -70 -13 -14 4 -18 2
-14 -5 4 -6 1 -11 -8 -11 -8 0 -17 6 -19 13 -3 7 -6 5 -6 -5 -1 -19 -41 -26
-41 -7 0 5 -5 7 -10 4 -6 -4 -8 -11 -5 -16 4 -5 -5 -9 -19 -9 -14 0 -26 4 -26
10 0 5 -7 7 -16 3 -13 -5 -13 -8 -2 -15 9 -6 1 -8 -24 -6 -21 2 -38 0 -38 -4
0 -4 -18 -8 -41 -8 -31 0 -40 3 -36 14 4 11 1 11 -18 2 -16 -7 -20 -13 -12
-19 7 -5 -14 -7 -47 -4 -33 2 -62 9 -64 16 -2 6 -8 9 -13 5 -15 -9 -79 19 -79
36 0 11 -2 12 -8 2 -9 -14 -42 -6 -42 10 0 5 -4 6 -10 3 -5 -3 -10 2 -10 12 0
15 -2 16 -10 3 -8 -12 -10 -12 -10 5 0 17 -2 17 -10 5 -8 -12 -10 -12 -10 5 0
17 -2 17 -10 5 -7 -11 -10 -11 -10 -2 0 7 -5 10 -10 7 -6 -3 -10 1 -10 9 0 9
-6 16 -14 16 -8 0 -22 7 -30 16 -9 8 -16 13 -16 9 0 -4 -7 0 -15 7 -34 30 -45
38 -45 31 0 -4 -6 0 -12 9 -7 9 -29 25 -49 35 -21 11 -34 24 -31 32 3 8 0 11
-6 8 -5 -4 -25 7 -43 23 -19 16 -38 30 -42 30 -5 0 -6 4 -3 8 3 5 -5 15 -17
23 -29 19 -116 103 -97 93 8 -4 -1 8 -21 27 -19 19 -28 30 -19 24 9 -5 0 5
-19 24 -20 19 -29 30 -21 25 9 -5 4 2 -10 16 -14 14 -21 23 -15 20 6 -3 -2 7
-19 21 -16 15 -26 31 -22 37 4 7 1 12 -8 12 -10 0 -13 6 -10 15 4 10 0 15 -11
15 -9 0 -15 6 -13 12 3 7 -4 21 -13 32 -10 10 -16 24 -12 29 3 6 1 7 -5 3 -6
-4 -18 8 -28 29 -10 21 -21 32 -28 28 -6 -4 -5 1 3 10 9 11 10 17 2 17 -6 0
-11 7 -11 16 0 9 -5 12 -12 8 -8 -5 -9 -2 -5 9 3 10 2 17 -4 17 -6 0 -7 5 -4
10 3 5 2 10 -3 10 -9 0 -36 53 -33 65 1 3 -5 13 -14 21 -8 9 -13 19 -10 24 7
11 -25 90 -36 90 -5 0 -8 3 -7 8 5 15 -35 101 -49 106 -8 3 -11 10 -8 16 3 5
2 10 -4 10 -6 0 -7 7 -4 17 5 12 3 14 -7 8 -10 -6 -12 -4 -7 8 4 10 1 17 -6
17 -8 0 -6 4 3 10 13 9 7 14 -12 11 -4 0 -4 7 -1 16 5 12 3 14 -7 8 -10 -6
-11 -2 -6 18 3 14 2 29 -4 32 -6 3 -7 -1 -4 -12 5 -17 5 -17 -6 0 -6 10 -9 25
-6 33 3 8 2 13 -3 10 -11 -7 -24 41 -15 56 5 7 2 8 -6 3 -10 -6 -12 -3 -8 13
4 14 2 20 -5 15 -6 -4 -8 2 -5 15 4 12 3 20 -2 17 -9 -6 -23 42 -15 55 3 4 0
10 -6 12 -6 2 -12 16 -12 31 -1 15 -6 27 -11 27 -4 0 -6 9 -3 20 3 10 0 21 -5
22 -6 2 -11 18 -12 36 0 18 -5 32 -9 32 -5 0 -5 5 -1 11 3 6 0 16 -7 21 -11 8
-11 11 -1 15 10 4 9 8 -4 18 -10 7 -17 25 -17 44 0 17 -5 31 -10 31 -5 0 -7 9
-4 20 3 11 2 20 -2 20 -10 0 -33 99 -26 110 3 5 1 11 -5 15 -15 9 -13 38 3 29
6 -4 3 2 -7 14 -11 12 -16 22 -12 22 4 0 2 8 -3 18 -5 10 -12 40 -15 67 -3 26
-8 51 -11 53 -3 3 1 12 8 20 7 10 8 13 1 9 -7 -4 -14 2 -17 13 -3 11 -1 23 4
26 6 3 5 12 -3 21 -7 9 -12 25 -10 35 2 11 -2 26 -9 34 -10 13 -10 17 2 25 8
5 9 9 3 9 -12 0 -38 166 -28 182 3 5 0 15 -6 23 -7 8 -10 26 -8 40 3 14 2 25
-2 25 -5 0 -7 14 -6 30 1 17 -3 30 -8 30 -6 0 -4 5 4 10 8 5 10 10 4 10 -6 0
-10 10 -9 23 1 12 -4 27 -10 32 -7 6 -61 76 -120 157 -59 82 -111 146 -115
143 -4 -3 -7 3 -6 13 0 9 -5 16 -12 14 -8 -1 -11 1 -8 6 3 5 -2 18 -10 28 -9
10 -12 13 -8 5 5 -10 3 -12 -5 -7 -7 5 -10 10 -7 13 10 10 -15 44 -26 37 -6
-4 -8 -3 -5 3 4 6 -11 34 -33 63 -40 54 -59 76 -45 51 5 -10 4 -12 -4 -7 -6 4
-9 11 -6 16 8 14 -36 70 -49 63 -6 -3 -8 -3 -4 2 11 12 -11 47 -25 39 -7 -4
-9 -4 -5 1 11 12 -11 47 -25 39 -7 -4 -9 -4 -5 1 9 10 -10 47 -21 41 -4 -3 -8
1 -8 8 0 21 -167 245 -178 238 -5 -3 -7 -2 -3 3 11 11 -11 47 -24 39 -6 -4 -8
-3 -5 3 4 6 -11 34 -33 63 -40 54 -59 76 -45 51 5 -10 4 -12 -4 -7 -6 4 -9 11
-6 15 6 10 -40 72 -48 66 -4 -3 -5 -2 -2 1 8 12 -16 45 -27 38 -6 -4 -8 -3 -5
2 8 13 -9 39 -25 39 -7 0 -13 9 -13 20 0 11 -7 20 -15 20 -8 0 -15 9 -15 20 0
11 -7 20 -15 20 -8 0 -15 7 -15 15 0 23 -36 71 -48 63 -6 -3 -7 -1 -3 5 9 15
-305 446 -318 437 -3 -3 -4 -2 -1 1 8 12 -16 45 -28 38 -7 -4 -9 -4 -5 1 11
11 -11 47 -24 39 -6 -4 -8 -3 -5 3 4 6 -1 21 -11 33 -17 21 -18 21 -16 -39z
m5444 -2955 c0 -3 -4 -8 -10 -11 -5 -3 -10 -1 -10 4 0 6 5 11 10 11 6 0 10 -2
10 -4z m-2805 -1716 c3 -6 -1 -7 -9 -4 -18 7 -21 14 -7 14 6 0 13 -4 16 -10z
m1605 -1104 c0 -2 -7 -7 -16 -10 -8 -3 -12 -2 -9 4 6 10 25 14 25 6z m-570
-570 c0 -2 -7 -7 -16 -10 -8 -3 -12 -2 -9 4 6 10 25 14 25 6z m-2079 -83 c13
-16 12 -17 -3 -4 -17 13 -22 21 -14 21 2 0 10 -8 17 -17z"/>
<path d="M4551 6454 c0 -11 3 -14 6 -6 3 7 2 16 -1 19 -3 4 -6 -2 -5 -13z"/>
<path d="M11802 5385 c0 -16 2 -22 5 -12 2 9 2 23 0 30 -3 6 -5 -1 -5 -18z"/>
<path d="M11750 5359 c0 -5 5 -7 10 -4 6 3 10 8 10 11 0 2 -4 4 -10 4 -5 0
-10 -5 -10 -11z"/>
<path d="M11670 5319 c0 -5 5 -7 10 -4 6 3 10 8 10 11 0 2 -4 4 -10 4 -5 0
-10 -5 -10 -11z"/>
<path d="M10446 4647 c3 -10 9 -15 12 -12 3 3 0 11 -7 18 -10 9 -11 8 -5 -6z"/>
<path d="M9785 2689 c-4 -6 -5 -12 -2 -15 2 -3 7 2 10 11 7 17 1 20 -8 4z"/>
</g>
</svg>
